<svg xmlns="http://www.w3.org/2000/svg" width="500" height="577.35797" viewBox="-162 -150 500 577.35797"><path d="M88-150C80.826-67.035-78.008 29.793-162-5.657c.013.01.024.024.036.034 6.569 5.262 12.585 11.94 18.064 19.64 24.584 33.04 35.165 79.178 34.669 124.662.496 45.483-10.085 91.621-34.669 124.662-5.479 7.7-11.495 14.377-18.064 19.64-.012.01-.023.023-.036.033 83.992-35.45 242.826 61.379 250 144.344 7.174-82.965 166.008-179.793 250-144.344-.013-.01-.024-.022-.036-.034-6.569-5.262-12.585-11.94-18.064-19.64-24.584-33.04-35.165-79.178-34.669-124.661-.496-45.484 10.085-91.622 34.669-124.662 5.479-7.7 11.495-14.378 18.064-19.64.012-.01.023-.024.036-.034C254.008 29.793 95.174-67.035 88-150Z" style="opacity:1;fill:#920100;fill-opacity:1;stroke-width:.258127;stroke-linecap:round;stroke-linejoin:round"/><path d="M96.144-16.498v74.76a83.42 83.42 0 0 1 69.804 54.607H10.052a83.42 83.42 0 0 1 69.804-54.607v-74.395A157.596 157.596 0 0 0-68.845 130.362H244.87A157.596 157.596 0 0 0 96.144-16.498ZM-68.828 151.616A157.596 157.596 0 0 0 88 298.476a157.596 157.596 0 0 0 157.186-146.86H-4.158Zm78.79 17.493h156.076A83.42 83.42 0 0 1 88 224.299a83.42 83.42 0 0 1-78.038-55.19Z" style="opacity:1;fill:#fff;fill-opacity:1;stroke:none;stroke-width:.251128;stroke-linecap:round;stroke-linejoin:round"/></svg>