<?xml version="1.0"?>
<svg width="500" height="577.35797" xmlns="http://www.w3.org/2000/svg" xmlns:svg="http://www.w3.org/2000/svg">
 <g class="layer">
  <title>Layer 1</title>
  <g id="svg_3">
   <path d="m250,0c-7.17,82.96 -166.01,179.79 -250,144.34c0.01,0.01 0.02,0.03 0.04,0.04c6.57,5.26 12.58,11.94 18.06,19.64c24.58,33.04 35.17,79.18 34.67,124.66c0.49,45.48 -10.09,91.62 -34.67,124.66c-5.48,7.7 -11.5,14.38 -18.06,19.64c-0.02,0.01 -0.03,0.02 -0.04,0.03c83.99,-35.45 242.83,61.38 250,144.35c7.17,-82.97 166.01,-179.8 250,-144.35c-0.01,-0.01 -0.02,-0.02 -0.04,-0.03c-6.57,-5.26 -12.58,-11.94 -18.06,-19.64c-24.58,-33.04 -35.17,-79.18 -34.67,-124.66c-0.49,-45.48 10.09,-91.62 34.67,-124.66c5.48,-7.7 11.5,-14.38 18.06,-19.64c0.02,-0.01 0.03,-0.03 0.04,-0.04c-83.99,35.45 -242.83,-61.38 -250,-144.34z" fill="#000000" id="svg_1" stroke-linecap="round" stroke-linejoin="round" stroke-width="0.26"/>
   <path d="m258.14,133.5l0,74.76a83.42,83.42 0 0 1 69.81,54.61l-155.9,0a83.42,83.42 0 0 1 69.81,-54.61l0,-74.39a157.6,157.6 0 0 0 -148.71,146.49l313.72,0a157.6,157.6 0 0 0 -148.73,-146.86zm-164.97,168.12a157.6,157.6 0 0 0 156.83,146.86a157.6,157.6 0 0 0 157.19,-146.86l-249.35,0l-64.67,0zm78.79,17.49l156.08,0a83.42,83.42 0 0 1 -78.04,55.19a83.42,83.42 0 0 1 -78.04,-55.19z" fill="#fff" id="svg_2" stroke-linecap="round" stroke-linejoin="round" stroke-width="0.25"/>
  </g>
 </g>
</svg>