<svg xmlns="http://www.w3.org/2000/svg" width="500" height="593.46802" viewBox="0 0 132.29166 157.02175"><path d="M9.99 38.58A10.294 10.294 0 0 0 .005 49.173c.712 24.112 14.22 45.193 35.04 56.006l-13.838 37.994a10.318 10.318 0 0 0 6.163 13.226 10.318 10.318 0 0 0 13.226-6.164l14.01-38.468a73.037 73.037 0 0 0 11.352 1.105 10.294 10.294 0 0 0 .189-.022 10.294 10.294 0 0 0 .189.022 73.038 73.038 0 0 0 11.352-1.105l14.01 38.468a10.318 10.318 0 0 0 13.226 6.164 10.318 10.318 0 0 0 6.163-13.226L97.248 105.18c20.82-10.813 34.328-31.894 35.04-56.006a10.294 10.294 0 0 0-9.986-10.593 10.294 10.294 0 0 0-10.594 9.986c-.481 16.326-8.179 29.98-21.426 37.488L75.84 46.403a10.318 10.318 0 0 0-.036-.066 10.318 10.318 0 0 0-1.363-2.516 10.318 10.318 0 0 0-.11-.146 10.318 10.318 0 0 0-2.036-2.014 10.318 10.318 0 0 0-.133-.093 10.318 10.318 0 0 0-2.485-1.33 10.318 10.318 0 0 0-.07-.017 10.318 10.318 0 0 0-.211-.054 10.318 10.318 0 0 0-2.447-.473 10.318 10.318 0 0 0-.355-.068 10.318 10.318 0 0 0-.448.024 10.318 10.318 0 0 0-.448-.024 10.318 10.318 0 0 0-.355.068 10.318 10.318 0 0 0-2.447.473 10.318 10.318 0 0 0-.21.054 10.318 10.318 0 0 0-.07.018 10.318 10.318 0 0 0-.694.384 10.318 10.318 0 0 0-1.994 1.106 10.318 10.318 0 0 0-.844.835 10.318 10.318 0 0 0-1.318 1.415 10.318 10.318 0 0 0-.622 1.147 10.318 10.318 0 0 0-.692 1.277L42.01 86.053c-13.247-7.508-20.945-21.161-21.427-37.487A10.294 10.294 0 0 0 9.991 38.58Zm56.156 41.502 4.35 11.94a60.85 60.85 0 0 1-4.35.258 60.85 60.85 0 0 1-4.35-.257z" style="color:#000;opacity:1;fill:#02ab50;fill-opacity:1;stroke-width:.327541;stroke-linecap:round"/><circle cx="66.145836" cy="14.871065" r="14.871065" style="opacity:1;fill:#dc5923;fill-opacity:1;stroke-width:21.5522;stroke-linecap:round;stroke-linejoin:round;stroke-miterlimit:4;stroke-dasharray:none"/></svg>