<?xml version="1.0"?>
<svg width="132.29166" height="157.02175" xmlns="http://www.w3.org/2000/svg" xmlns:svg="http://www.w3.org/2000/svg">
 <g class="layer">
  <title>Layer 1</title>
  <path d="m9.99,38.58a10.29,10.29 0 0 0 -9.98,10.59c0.71,24.11 14.22,45.2 35.04,56.01l-13.84,37.99a10.32,10.32 0 0 0 6.16,13.23a10.32,10.32 0 0 0 13.23,-6.16l14.01,-38.47a73.04,73.04 0 0 0 11.35,1.1a10.29,10.29 0 0 0 0.19,-0.02a10.29,10.29 0 0 0 0.19,0.02a73.04,73.04 0 0 0 11.35,-1.1l14.01,38.47a10.32,10.32 0 0 0 13.22,6.16a10.32,10.32 0 0 0 6.17,-13.23l-13.84,-37.99c20.82,-10.81 34.33,-31.89 35.04,-56.01a10.29,10.29 0 0 0 -9.99,-10.59a10.29,10.29 0 0 0 -10.59,9.99c-0.48,16.32 -8.18,29.98 -21.43,37.48l-14.44,-39.65a10.32,10.32 0 0 0 -0.04,-0.06a10.32,10.32 0 0 0 -1.36,-2.52a10.32,10.32 0 0 0 -0.11,-0.15a10.32,10.32 0 0 0 -2.04,-2.01a10.32,10.32 0 0 0 -0.13,-0.09a10.32,10.32 0 0 0 -2.48,-1.33a10.32,10.32 0 0 0 -0.07,-0.02a10.32,10.32 0 0 0 -0.21,-0.05a10.32,10.32 0 0 0 -2.45,-0.48a10.32,10.32 0 0 0 -0.36,-0.06a10.32,10.32 0 0 0 -0.44,0.02a10.32,10.32 0 0 0 -0.45,-0.02a10.32,10.32 0 0 0 -0.36,0.06a10.32,10.32 0 0 0 -2.44,0.48a10.32,10.32 0 0 0 -0.21,0.05a10.32,10.32 0 0 0 -0.07,0.02a10.32,10.32 0 0 0 -0.7,0.38a10.32,10.32 0 0 0 -1.99,1.11a10.32,10.32 0 0 0 -0.85,0.83a10.32,10.32 0 0 0 -1.31,1.42a10.32,10.32 0 0 0 -0.63,1.15a10.32,10.32 0 0 0 -0.69,1.27l-14.44,39.65c-13.25,-7.5 -20.95,-21.16 -21.43,-37.48a10.29,10.29 0 0 0 -10.59,-9.99zm56.16,41.5l4.35,11.94a60.85,60.85 0 0 1 -4.35,0.26a60.85,60.85 0 0 1 -4.35,-0.26l4.35,-11.94z" fill="#000000" id="svg_1" stroke-linecap="round" stroke-width="0.33"/>
  <circle cx="66.15" cy="14.87" fill="#000000" id="svg_2" r="14.87" stroke-linecap="round" stroke-linejoin="round" stroke-miterlimit="4" stroke-width="21.55"/>
 </g>
</svg>