<svg xmlns="http://www.w3.org/2000/svg" width="500" height="500" version="1.0"><path d="M250 0c-.89 0-1.784.006-2.672.015-.892.01-1.782.029-2.671.048-1.778.037-3.546.097-5.313.171C106.281 5.824 0 115.572 0 250c0 41.727 10.242 81.077 28.344 115.672l.39.75c.031.058.064.114.094.172.295.558.592 1.116.89 1.672.382.707.77 1.406 1.157 2.109a248.884 248.884 0 0 0 2.266 4.032c.116.202.227.407.344.609a249.702 249.702 0 0 0 2.718 4.578c.241.398.49.791.735 1.188.22.358.433.72.656 1.078.469.753.945 1.502 1.421 2.25C83.406 453.769 161.335 500 250 500c88.662 0 166.578-46.235 210.969-115.89.41-.645.829-1.289 1.234-1.938.065-.103.123-.21.188-.313a250.567 250.567 0 0 0 2.765-4.546 249.528 249.528 0 0 0 6.485-11.641C489.744 331.075 500 291.729 500 250 500 115.571 393.719 5.825 260.656.234V.218c-.333-.013-.667-.018-1-.03-.552-.022-1.103-.046-1.656-.063-.516-.016-1.03-.034-1.547-.047h-.14c-.739-.018-1.479-.035-2.22-.047-.285-.005-.572-.012-.858-.016-.188-.002-.376.002-.563 0A266.775 266.775 0 0 0 250 0Zm-12.563 20.344L226.594 135H117.5l104.703 44.875c-2.25 16.012-7.574 31.572-15.828 45.719-7.775 13.326-18.163 25.387-30.985 35.39L84.157 192.75l54.547 94.484-93.89 66.735C28.944 322.738 20 287.41 20 250c0-122.745 96.313-223.125 217.438-229.656Zm25.125 0C383.688 26.875 480 127.255 480 250c0 37.41-8.944 72.737-24.813 103.969l-93.906-66.735 54.563-94.484L324.61 261c-12.74-9.954-23.548-22.342-31.672-36.563-7.659-13.406-12.907-28.443-15.156-44.562L382.5 135H273.39L262.563 20.344Zm-11.89 279.625c15.44.07 31.088 3.03 46.172 9.14l-13.5 113.125 54.547-94.469 104.718 47.938C401.53 438.493 330.583 480 250 480c-80.583 0-151.53-41.507-192.61-104.297l104.72-47.938 54.546 94.47-13.5-113.11c14.995-6.06 31.132-9.23 47.515-9.156z" style="opacity:1;fill:#fff;fill-opacity:1;fill-rule:nonzero;stroke:none;stroke-width:10;stroke-linecap:round;stroke-linejoin:round;stroke-miterlimit:4;stroke-dasharray:none;stroke-opacity:1"/></svg>