<?xml version="1.0"?>
<svg width="500" height="500" xmlns="http://www.w3.org/2000/svg" xmlns:svg="http://www.w3.org/2000/svg" version="1.0">
 <g class="layer">
  <title>Layer 1</title>
  <path d="m250,0c-0.89,0 -1.78,0.01 -2.67,0.02c-0.89,0.01 -1.78,0.02 -2.67,0.04c-1.78,0.04 -3.55,0.1 -5.32,0.17c-133.06,5.59 -239.34,115.34 -239.34,249.77c0,41.73 10.24,81.08 28.34,115.67l0.39,0.75c0.03,0.06 0.07,0.12 0.1,0.17c0.29,0.56 0.59,1.12 0.89,1.68c0.38,0.7 0.77,1.4 1.15,2.1a248.88,248.88 0 0 0 2.27,4.04c0.12,0.2 0.23,0.4 0.35,0.61a249.7,249.7 0 0 0 2.71,4.57c0.24,0.4 0.49,0.79 0.74,1.19c0.22,0.36 0.43,0.72 0.65,1.08c0.47,0.75 0.95,1.5 1.43,2.25c44.39,69.66 122.32,115.89 210.98,115.89c88.66,0 166.58,-46.24 210.97,-115.89c0.41,-0.64 0.83,-1.29 1.23,-1.94c0.07,-0.1 0.13,-0.21 0.19,-0.31a250.57,250.57 0 0 0 2.77,-4.55a249.53,249.53 0 0 0 6.48,-11.64c18.1,-34.59 28.36,-73.94 28.36,-115.67c0,-134.43 -106.28,-244.18 -239.34,-249.77l0,-0.01c-0.34,-0.01 -0.67,-0.02 -1,-0.03c-0.56,-0.02 -1.11,-0.05 -1.66,-0.06c-0.52,-0.02 -1.03,-0.04 -1.55,-0.05l-0.14,0c-0.74,-0.02 -1.48,-0.04 -2.22,-0.05c-0.28,0 -0.57,-0.01 -0.85,-0.01c-0.19,-0.01 -0.38,0 -0.57,0a266.77,266.77 0 0 0 -2.67,-0.02zm-12.56,20.34l-10.85,114.66l-109.09,0l104.7,44.88c-2.25,16.01 -7.57,31.57 -15.82,45.71c-7.78,13.33 -18.17,25.39 -30.99,35.39l-91.23,-68.23l54.54,94.48l-93.89,66.74c-15.87,-31.23 -24.81,-66.56 -24.81,-103.97c0,-122.75 96.31,-223.12 217.44,-229.66zm25.12,0c121.13,6.54 217.44,106.91 217.44,229.66c0,37.41 -8.94,72.74 -24.81,103.97l-93.91,-66.74l54.56,-94.48l-91.23,68.25c-12.74,-9.95 -23.55,-22.34 -31.67,-36.56c-7.66,-13.41 -12.91,-28.45 -15.16,-44.56l104.72,-44.88l-109.11,0l-10.83,-114.66zm-11.89,279.63c15.44,0.07 31.09,3.03 46.17,9.14l-13.5,113.12l54.55,-94.47l104.72,47.94c-41.08,62.79 -112.03,104.3 -192.61,104.3c-80.58,0 -151.53,-41.51 -192.61,-104.3l104.72,-47.93l54.55,94.47l-13.5,-113.11c14.99,-6.06 31.13,-9.23 47.51,-9.16z" fill="#000000" fill-rule="nonzero" id="svg_1" stroke-linecap="round" stroke-linejoin="round" stroke-miterlimit="4" stroke-width="10"/>
 </g>
</svg>