<svg xmlns="http://www.w3.org/2000/svg" width="500" height="577.354"><g style="opacity:1;fill:#a66bc5;fill-opacity:1"><path d="M450 227.998a72 72 0 0 0-71.412 63.014H521.43A72 72 0 0 0 450 227.998Zm-71.412 80.988A72 72 0 0 0 450 371.998a72 72 0 0 0 71.412-63.012Z" style="color:#000;fill:#a66bc5;fill-opacity:1;stroke-width:36;stroke-linecap:round;stroke-linejoin:round" transform="matrix(1.60375 0 0 1.60375 -471.687 -192.447)"/></g><path d="M-256.75-375.033c-4.987 10.066-14.108 20.646-32.584 18.812a37.898 37.898 0 0 1 1.836 2.584 34.346 34.346 0 0 1 1.521 2.596 30.68 30.68 0 0 1 2.154 5.186 28.58 28.58 0 0 1 .665 2.572 27.92 27.92 0 0 1 .408 2.549 27.709 27.709 0 0 1 .17 2.513c.003.128-.001.255 0 .383.006.285.002.573 0 .86-.048 5.931-1.986 12.24-6.754 18.382a40.8 40.8 0 0 1 4.953-.2 35.94 35.94 0 0 1 3.043.2 32.388 32.388 0 0 1 2.84.444 28.781 28.781 0 0 1 5.113 1.541 27.243 27.243 0 0 1 6.36 3.666 29.627 29.627 0 0 1 3.455 3.125 32.83 32.83 0 0 1 2.222 2.593c.462.595.903 1.2 1.323 1.813.42.613.82 1.233 1.2 1.857.382.625.745 1.253 1.09 1.883.346.63.673 1.262.985 1.89.312-.628.64-1.26.984-1.89.346-.63.709-1.258 1.09-1.883.382-.624.781-1.244 1.201-1.857.42-.613.861-1.218 1.323-1.813a32.83 32.83 0 0 1 3.877-4.213 29.627 29.627 0 0 1 2.76-2.212 27.579 27.579 0 0 1 4.236-2.451 27.243 27.243 0 0 1 3.629-1.381 28.755 28.755 0 0 1 2.648-.668 32.344 32.344 0 0 1 4.336-.574 35.94 35.94 0 0 1 3.145-.07 40.619 40.619 0 0 1 3.355.2c-4.768-6.142-6.706-12.45-6.754-18.383-.002-.286-.006-.574 0-.859.001-.128-.003-.255 0-.383a27.65 27.65 0 0 1 .17-2.513 27.797 27.797 0 0 1 .707-3.832 28.58 28.58 0 0 1 .799-2.584 30.68 30.68 0 0 1 2.443-5.19 34.346 34.346 0 0 1 1.676-2.59c.306-.43.626-.861.959-1.29-18.476 1.833-27.597-8.747-32.584-18.813zm0 18.75c10.377 0 18.875 8.498 18.875 18.875s-8.498 18.875-18.875 18.875-18.875-8.498-18.875-18.875 8.498-18.875 18.875-18.875z" style="opacity:1;fill:#a56bc5;fill-opacity:1;stroke:none;stroke-width:36;stroke-linecap:round;stroke-linejoin:round;stroke-miterlimit:4;stroke-dasharray:none;stroke-opacity:1" transform="matrix(7.67248 0 0 7.67248 2219.91 2877.435)"/><g style="opacity:1;fill:#a56bc5;fill-opacity:1"><path d="M-256.75-352.283a14.875 14.875 0 0 0-14.693 12.656h29.398a14.875 14.875 0 0 0-14.705-12.656Zm-14.693 17.094a14.875 14.875 0 0 0 14.693 12.656 14.875 14.875 0 0 0 14.693-12.656z" style="color:#000;fill:#a56bc5;fill-opacity:1;stroke-width:8;stroke-linecap:round;stroke-linejoin:round" transform="matrix(7.67248 0 0 7.67248 2219.91 2877.435)"/></g></svg>