<?xml version="1.0"?>
<svg width="500" height="577.354" xmlns="http://www.w3.org/2000/svg" xmlns:svg="http://www.w3.org/2000/svg">
 <g class="layer">
  <title>Layer 1</title>
  <g fill="#a66bc5" id="svg_1">
   <path d="m450,228a72,72 0 0 0 -71.41,63.01l142.84,0a72,72 0 0 0 -71.43,-63.01zm-71.41,80.99a72,72 0 0 0 71.41,63.01a72,72 0 0 0 71.41,-63.01l-142.82,0z" fill="#000000" id="svg_2" stroke-linecap="round" stroke-linejoin="round" stroke-width="36" transform="matrix(1.60375 0 0 1.60375 -471.687 -192.447)"/>
  </g>
  <path d="m250,0.02c-38.29,77.19 -108.26,158.36 -249.97,144.32a290.79,290.79 0 0 1 14.04,19.79a263.55,263.55 0 0 1 11.66,19.95a235.39,235.39 0 0 1 16.57,39.82a219.28,219.28 0 0 1 5.06,19.72a214.22,214.22 0 0 1 3.15,19.56a212.6,212.6 0 0 1 1.3,19.26c0,1 0,1.92 0,2.92c0.08,2.23 0,4.45 0,6.6c-0.38,45.5 -15.27,93.91 -51.79,141.02a313.04,313.04 0 0 1 37.98,-1.53a275.75,275.75 0 0 1 23.32,1.53a248.51,248.51 0 0 1 21.79,3.45a220.81,220.81 0 0 1 39.28,11.82a209,209 0 0 1 48.8,28.16a227.34,227.34 0 0 1 26.47,23.94a251.89,251.89 0 0 1 17.03,19.87c3.53,4.6 6.98,9.21 10.2,13.96c3.22,4.68 6.29,9.44 9.21,14.19c2.92,4.83 5.68,9.67 8.36,14.5c2.61,4.83 5.14,9.67 7.52,14.5c2.38,-4.83 4.91,-9.67 7.52,-14.5c2.69,-4.83 5.45,-9.67 8.36,-14.5c2.99,-4.76 6.06,-9.51 9.28,-14.19c3.22,-4.76 6.6,-9.36 10.13,-13.96a251.89,251.89 0 0 1 29.77,-32.3a227.34,227.34 0 0 1 21.18,-16.96a211.61,211.61 0 0 1 32.45,-18.8a209,209 0 0 1 27.85,-10.59a220.58,220.58 0 0 1 20.33,-5.14a248.13,248.13 0 0 1 33.22,-4.45a275.75,275.75 0 0 1 24.17,-0.54a311.66,311.66 0 0 1 25.7,1.53c-36.52,-47.11 -51.41,-95.52 -51.79,-141.02c0,-2.15 -0.08,-4.37 0,-6.6c0,-1 0,-1.92 0,-2.92a212.14,212.14 0 0 1 1.3,-19.26a213.29,213.29 0 0 1 5.45,-29.46a219.28,219.28 0 0 1 6.14,-19.79a235.39,235.39 0 0 1 18.72,-39.82a263.55,263.55 0 0 1 12.89,-19.87c2.3,-3.3 4.76,-6.6 7.29,-9.9c-141.71,14.04 -211.68,-67.13 -249.97,-144.32zm0,143.86c79.64,0 144.78,65.22 144.78,144.78s-65.14,144.86 -144.78,144.86s-144.86,-65.22 -144.86,-144.86s65.22,-144.78 144.86,-144.78z" fill="#000000" id="svg_3" stroke-linecap="round" stroke-linejoin="round" stroke-miterlimit="4" stroke-width="36"/>
  <g fill="#a56bc5" id="svg_4">
   <path d="m-256.75,-352.28a14.88,14.88 0 0 0 -14.69,12.65l29.4,0a14.88,14.88 0 0 0 -14.71,-12.65zm-14.69,17.09a14.88,14.88 0 0 0 14.69,12.66a14.88,14.88 0 0 0 14.69,-12.66l-29.38,0z" fill="#000000" id="svg_5" stroke-linecap="round" stroke-linejoin="round" stroke-width="8" transform="matrix(7.67248 0 0 7.67248 2219.91 2877.435)"/>
  </g>
 </g>
</svg>