<?xml version="1.0"?>
<svg width="500" height="525.52502" xmlns="http://www.w3.org/2000/svg" xmlns:svg="http://www.w3.org/2000/svg" version="1.0">
 <g class="layer">
  <title>Layer 1</title>
  <path d="m222.22,0a276.84,276.84 0 0 0 -55.57,11.33l0,30.04c-97.04,34.36 -166.65,126.95 -166.65,235.72c0,128.6 97.28,234.6 222.22,248.44l0,-27.7c-36.55,-4.56 -70.36,-17.99 -99.2,-38.07l99.33,-57.39l-88.34,-153.06l232.24,0l-88.25,152.8l99.37,57.34c-28.93,20.24 -62.87,33.79 -99.59,38.38l0,27.69c124.94,-13.83 222.22,-119.83 222.22,-248.43c0,-108.77 -69.61,-201.36 -166.65,-235.72l0,-30.04a276.84,276.84 0 0 0 -55.57,-11.33l0,193.74l-55.56,0l0,-193.74zm-55.57,70.8l0,122.94l-122.94,0c22.59,-55.8 67.14,-100.35 122.94,-122.94zm166.7,0c55.8,22.59 100.35,67.14 122.94,122.94l-122.94,0l0,-122.94zm-304.09,178.5l72.71,0l68.59,118.82l-90.64,52.31c-32.69,-38.73 -52.4,-88.74 -52.4,-143.34c0,-9.42 0.6,-18.68 1.74,-27.79zm369.03,0l72.45,0a224.02,224.02 0 0 1 1.74,27.79c0,54.46 -19.61,104.35 -52.14,143.03l-90.51,-52.26l68.46,-118.56z" fill="#000000" id="svg_1" stroke-width="1.39"/>
 </g>
</svg>