<svg xmlns="http://www.w3.org/2000/svg" width="500" height="525.52502" version="1.0"><path d="M222.217 0a276.844 276.844 0 0 0-55.565 11.33v30.04C69.607 75.727 0 168.324 0 277.088c0 128.604 97.28 234.604 222.217 248.437V497.83c-36.546-4.562-70.36-17.987-99.192-38.07l99.323-57.389-88.34-153.065h232.245L278 402.11l99.366 57.345c-28.921 20.24-62.865 33.79-99.583 38.374v27.696C402.72 511.692 500 405.692 500 277.088c0-108.764-69.607-201.36-166.652-235.718V11.33A276.844 276.844 0 0 0 277.783 0v193.74h-55.566Zm-55.565 70.802V193.74H43.714C66.3 137.936 110.848 93.387 166.652 70.802Zm166.696 0C389.152 93.387 433.7 137.936 456.286 193.74H333.348ZM29.258 249.305h72.713l68.588 118.814-90.64 52.31c-32.684-38.724-52.397-88.739-52.397-143.341 0-9.415.6-18.674 1.737-27.783zm369.032 0h72.451a224.025 224.025 0 0 1 1.737 27.783c0 54.458-19.608 104.356-52.136 143.037l-90.51-52.266Z" style="fill:#fff;fill-opacity:1;stroke:none;stroke-width:1.38913"/></svg>