<svg xmlns="http://www.w3.org/2000/svg" width="600" height="600" version="1.0"><path d="M300 0C134.4 0 0 134.4 0 300s134.4 300 300 300 300-134.4 300-300c0-126.456-78.367-234.728-189.156-278.844a1415.226 1415.226 0 0 1-36.531 40.094C476.058 92.918 550 187.875 550 300c0 36.05-7.653 70.313-21.406 101.281-43.073-31.568-99.669-56.798-162.625-67.781 5.768-66.748-11.826-143.328-58.406-214.625C341.385 87.261 373.397 53.835 405 20L225 125l22.688 30.281c41.583 60.536 60.067 120.162 62.968 172.469-77.685-2.592-161.339 17.667-239.187 73.688C57.672 370.428 50 336.11 50 300 50 162 162 50 300 50c12.593 0 24.968.95 37.063 2.75 5.512-3.215 11.018-6.442 16.53-9.656 15.547-7.891 29.725-18.696 45.5-26.282C368.067 5.947 334.724 0 300 0Zm-.094 379.75a231.67 231.67 0 0 1 8.375.156c-2.929 19.077-8.03 36.525-14.812 51.906-19.006 43.1-112.854 89.643-175.375 31.188.554-1.177 1.175-2.208 1.906-3 47.638-51.568 113.395-80.2 179.906-80.25zm55.938 6.875C398.986 397.478 440.352 421.392 475 460c2.327 2.593 3.64 8.032 4.375 14.063C433.932 520.885 370.353 550 300 550c-46.087 0-89.26-12.502-126.344-34.281 91.768 8.51 157.202-47.254 182.188-129.094z" style="opacity:1;fill:#fff;fill-opacity:1;fill-rule:nonzero;stroke:none;stroke-width:100;stroke-linecap:square;stroke-linejoin:miter;stroke-miterlimit:4;stroke-dasharray:none;stroke-opacity:1"/></svg>