<?xml version="1.0"?>
<svg width="600" height="600" xmlns="http://www.w3.org/2000/svg" xmlns:svg="http://www.w3.org/2000/svg" version="1.0">
 <g class="layer">
  <title>Layer 1</title>
  <path d="m300,0c-165.6,0 -300,134.4 -300,300s134.4,300 300,300s300,-134.4 300,-300c0,-126.46 -78.37,-234.73 -189.16,-278.84a1415.23,1415.23 0 0 1 -36.53,40.09c101.75,31.67 175.69,126.63 175.69,238.75c0,36.05 -7.65,70.31 -21.41,101.28c-43.07,-31.57 -99.66,-56.8 -162.62,-67.78c5.77,-66.75 -11.83,-143.33 -58.41,-214.62c33.83,-31.62 65.84,-65.05 97.44,-98.88l-180,105l22.69,30.28c41.58,60.54 60.07,120.16 62.97,172.47c-77.69,-2.59 -161.34,17.67 -239.19,73.69c-13.8,-31.01 -21.47,-65.33 -21.47,-101.44c0,-138 112,-250 250,-250c12.59,0 24.97,0.95 37.06,2.75c5.51,-3.21 11.02,-6.44 16.53,-9.66c15.55,-7.89 29.73,-18.69 45.5,-26.28c-31.02,-10.86 -64.37,-16.81 -99.09,-16.81zm-0.09,379.75a231.67,231.67 0 0 1 8.37,0.16c-2.93,19.07 -8.03,36.52 -14.81,51.9c-19.01,43.1 -112.85,89.64 -175.38,31.19c0.56,-1.18 1.18,-2.21 1.91,-3c47.64,-51.57 113.39,-80.2 179.91,-80.25zm55.93,6.88c43.15,10.85 84.51,34.76 119.16,73.37c2.33,2.59 3.64,8.03 4.38,14.06c-45.45,46.83 -109.03,75.94 -179.38,75.94c-46.09,0 -89.26,-12.5 -126.34,-34.28c91.76,8.51 157.2,-47.25 182.18,-129.09z" fill="#000000" fill-rule="nonzero" id="svg_1" stroke-linecap="square" stroke-miterlimit="4" stroke-width="100"/>
 </g>
</svg>