<svg xmlns="http://www.w3.org/2000/svg" width="500" height="500" version="1.0"><g style="fill:#654164;fill-opacity:1"><path d="M750 30C352.56 30 30 352.56 30 750s322.56 720 720 720 720-322.56 720-720S1147.44 30 750 30Zm0 120c331.2 0 600 268.8 600 600s-268.8 600-600 600-600-268.8-600-600 268.8-600 600-600ZM550 290v120h190.938L621.28 614.75 541.5 572.875c-97.747-51.319-218.713-13.654-270.031 84.094-51.319 97.747-13.654 218.744 84.094 270.062l.218-.406c94.225 50.12 212.172 17.252 266.5-75.719l44.782-76.593L772.25 829.53 549.937 1209.97H950v-120H759.062l119.625-204.75 79.813 41.906v-.031c97.748 51.318 218.713 13.654 270.031-84.094 51.319-97.747 13.654-218.744-84.093-270.062l-.22.406c-29.322-15.599-60.933-23.163-92.218-23.375-69.25-.47-136.858 35.051-174.281 99.094l-44.75 76.625-105.219-55.25L950.063 290H811.062ZM449.969 669.938a79.566 79.566 0 0 1 33.937 8.218c.616.304 1.202.648 1.813.969v-.031l74.969 39.375-42.032 71.906c-22.28 38.128-71.278 50.999-109.406 28.719-37.532-21.932-50.603-69.798-29.75-107.657.331-.6.683-1.185 1.031-1.78l-.812-.47c15.033-25.43 42.271-39.712 70.25-39.25zm599.125.03a79.583 79.583 0 0 1 41.656 10.907c37.532 21.932 50.603 69.798 29.75 107.656-.331.601-.683 1.186-1.031 1.781l.812.47c-21.187 35.838-66.647 49.541-104.187 31.03-.615-.303-1.202-.648-1.813-.968v.03L939.313 781.5l42.03-71.906c14.622-25.021 40.74-39.155 67.75-39.625z" style="opacity:1;fill:#654164;fill-opacity:1;fill-rule:nonzero;stroke:none;stroke-width:20;stroke-linecap:round;stroke-linejoin:round;stroke-miterlimit:4;stroke-dasharray:none;stroke-opacity:1" transform="translate(-10.417 -10.417) scale(.34722)"/></g></svg>