<?xml version="1.0"?>
<svg width="500" height="500" xmlns="http://www.w3.org/2000/svg" xmlns:svg="http://www.w3.org/2000/svg" version="1.0">
 <g class="layer">
  <title>Layer 1</title>
  <g fill="#654164" id="svg_1">
   <path d="m750,30c-397.44,0 -720,322.56 -720,720s322.56,720 720,720s720,-322.56 720,-720s-322.56,-720 -720,-720zm0,120c331.2,0 600,268.8 600,600s-268.8,600 -600,600s-600,-268.8 -600,-600s268.8,-600 600,-600zm-200,140l0,120l190.94,0l-119.66,204.75l-79.78,-41.87c-97.75,-51.32 -218.71,-13.66 -270.03,84.09c-51.32,97.75 -13.66,218.74 84.09,270.06l0.22,-0.4c94.23,50.12 212.17,17.25 266.5,-75.72l44.78,-76.6l105.19,55.22l-222.31,380.44l400.06,0l0,-120l-190.94,0l119.63,-204.75l79.81,41.91l0,-0.04c97.75,51.32 218.71,13.66 270.03,-84.09c51.32,-97.75 13.66,-218.74 -84.09,-270.06l-0.22,0.4c-29.32,-15.59 -60.93,-23.16 -92.22,-23.37c-69.25,-0.47 -136.86,35.05 -174.28,99.09l-44.75,76.63l-105.22,-55.25l222.31,-380.44l-139,0l-261.06,0zm-100.03,379.94a79.57,79.57 0 0 1 33.94,8.22c0.61,0.3 1.2,0.64 1.81,0.96l0,-0.03l74.97,39.38l-42.03,71.9c-22.28,38.13 -71.28,51 -109.41,28.72c-37.53,-21.93 -50.6,-69.79 -29.75,-107.65c0.33,-0.6 0.68,-1.19 1.03,-1.78l-0.81,-0.47c15.03,-25.43 42.27,-39.72 70.25,-39.25zm599.12,0.03a79.58,79.58 0 0 1 41.66,10.9c37.53,21.94 50.6,69.8 29.75,107.66c-0.33,0.6 -0.68,1.19 -1.03,1.78l0.81,0.47c-21.19,35.84 -66.65,49.54 -104.19,31.03c-0.61,-0.3 -1.2,-0.65 -1.81,-0.97l0,0.03l-74.97,-39.37l42.03,-71.91c14.62,-25.02 40.74,-39.15 67.75,-39.62z" fill="#000000" fill-rule="nonzero" id="svg_2" stroke-linecap="round" stroke-linejoin="round" stroke-miterlimit="4" stroke-width="20" transform="translate(-10.417 -10.417) scale(.34722)"/>
  </g>
 </g>
</svg>