<svg xmlns="http://www.w3.org/2000/svg" width="500" height="496.21201" version="1.0"><path d="M250 0c-13.193.79-25.359 5.183-33.555 23.513L173.65 137.771c-7.067 16.006-18.339 27.996-34.875 34.96L19.953 216.15C7.554 222.98.856 233.602 0 248.106c.856 14.504 7.554 25.127 19.953 31.957l118.822 43.418c16.537 6.964 27.808 18.954 34.875 34.96l42.795 114.257c8.196 18.33 20.362 22.724 33.555 23.514 13.193-.79 25.36-5.183 33.556-23.514l42.795-114.258c7.068-16.005 18.34-27.995 34.876-34.96l118.822-43.417c12.398-6.83 19.095-17.453 19.951-31.957-.856-14.504-7.553-25.127-19.951-31.957l-118.822-43.418c-16.537-6.964-27.808-18.954-34.876-34.96L283.556 23.514C275.36 5.183 263.193.79 250 0Z" style="opacity:1;fill:#0c257d;fill-opacity:1;stroke:none;stroke-width:.853849px;stroke-linecap:butt;stroke-linejoin:miter;stroke-opacity:1"/><path d="M249.115 43.395c-6.024.132-12.402 3.531-17.678 12.587-14.37 21.477-26.002 79.959-29.084 144.57-43.85 3.896-109.536 7.362-147.246 29.958-10.677 4.83-22.437 23.757 0 36.626 21.678 14.325 80.606 26.112 145.777 28.571 3.869 43.56 7.424 108.243 29.889 145.488 4.83 10.607 23.759 22.29 36.628 0 14.308-21.51 26.081-79.941 28.56-144.595 44.216-3.817 109.744-7.352 147.502-29.52 10.768-4.773 22.627-23.477 0-36.194-21.9-14.18-81.504-25.849-147.37-28.25-3.212-43.562-5.68-108.87-27.396-146.353-2.733-6.298-10.778-13.082-19.582-12.888Zm1.712 54.236c4.885.44 10.095 4.419 15.248 13.32 15.697 27.641 17.157 60.27 21.702 91.462-13.08-.318-26.332-.306-39.558.172v7.149c46.647 3.753 93.618 2.665 140.157 23.708 14.795 7.626 20.246 19.675-.407 31.792-27.741 15.972-60.428 18.052-91.764 22.94.332-12.998.322-26.17-.166-39.314h-7.235c-3.798 45.952-2.695 92.223-23.991 138.068-7.717 14.575-19.911 19.946-32.173-.4-16.195-27.382-18.275-59.656-23.242-90.58 13 .323 26.171.312 39.316-.172v-7.235c-46.256-3.798-92.832-2.695-138.98-23.991-14.672-7.717-20.078-19.911.402-32.174 27.771-16.316 60.542-18.3 91.884-23.35-.468 13.094-.617 26.362-.323 39.593h7.121c4.397-45.952 3.976-92.223 25.595-138.068 4.39-8.198 10.133-13.485 16.414-12.92z" style="opacity:1;fill:#fff;fill-opacity:1;stroke:none;stroke-width:.852672px;stroke-linecap:butt;stroke-linejoin:miter;stroke-opacity:1"/></svg>