<?xml version="1.0"?>
<svg width="500" height="496.21201" xmlns="http://www.w3.org/2000/svg" xmlns:svg="http://www.w3.org/2000/svg" version="1.0">
 <g class="layer">
  <title>Layer 1</title>
  <path d="m250,0c-13.19,0.79 -25.36,5.18 -33.56,23.51l-42.79,114.26c-7.07,16.01 -18.34,28 -34.88,34.96l-118.82,43.42c-12.4,6.83 -19.09,17.45 -19.95,31.96c0.86,14.5 7.55,25.12 19.95,31.95l118.82,43.42c16.54,6.97 27.81,18.96 34.88,34.96l42.79,114.26c8.2,18.33 20.37,22.72 33.56,23.51c13.19,-0.79 25.36,-5.18 33.56,-23.51l42.79,-114.26c7.07,-16 18.34,-27.99 34.88,-34.96l118.82,-43.42c12.4,-6.83 19.09,-17.45 19.95,-31.95c-0.86,-14.51 -7.55,-25.13 -19.95,-31.96l-118.82,-43.42c-16.54,-6.96 -27.81,-18.95 -34.88,-34.96l-42.79,-114.26c-8.2,-18.33 -20.37,-22.72 -33.56,-23.51z" fill="#000000" id="svg_1" stroke-width="0.85px"/>
  <path d="m249.12,43.4c-6.03,0.13 -12.41,3.53 -17.68,12.58c-14.37,21.48 -26,79.96 -29.09,144.57c-43.85,3.9 -109.53,7.36 -147.24,29.96c-10.68,4.83 -22.44,23.76 0,36.63c21.68,14.32 80.6,26.11 145.77,28.57c3.87,43.56 7.43,108.24 29.89,145.49c4.83,10.6 23.76,22.29 36.63,0c14.31,-21.51 26.08,-79.95 28.56,-144.6c44.22,-3.82 109.74,-7.35 147.5,-29.52c10.77,-4.77 22.63,-23.48 0,-36.19c-21.9,-14.18 -81.5,-25.85 -147.37,-28.25c-3.21,-43.57 -5.68,-108.87 -27.39,-146.36c-2.74,-6.29 -10.78,-13.08 -19.59,-12.88l0.01,0zm1.71,54.23c4.88,0.44 10.09,4.42 15.25,13.32c15.69,27.64 17.15,60.27 21.7,91.46c-13.08,-0.32 -26.33,-0.3 -39.56,0.17l0,7.15c46.65,3.76 93.62,2.67 140.16,23.71c14.79,7.63 20.24,19.68 -0.41,31.79c-27.74,15.98 -60.43,18.06 -91.76,22.94c0.33,-12.99 0.32,-26.17 -0.17,-39.31l-7.24,0c-3.79,45.95 -2.69,92.22 -23.99,138.07c-7.71,14.57 -19.91,19.94 -32.17,-0.4c-16.19,-27.38 -18.27,-59.66 -23.24,-90.58c13,0.32 26.17,0.31 39.31,-0.17l0,-7.24c-46.25,-3.8 -92.83,-2.69 -138.98,-23.99c-14.67,-7.72 -20.07,-19.91 0.41,-32.17c27.77,-16.32 60.54,-18.3 91.88,-23.35c-0.47,13.09 -0.62,26.36 -0.32,39.59l7.12,0c4.4,-45.95 3.97,-92.22 25.59,-138.07c4.39,-8.2 10.14,-13.48 16.42,-12.92z" fill="#fff" id="svg_2" stroke-width="0.85px"/>
 </g>
</svg>