<?xml version="1.0"?>
<svg width="100" height="103.92419" xmlns="http://www.w3.org/2000/svg" xmlns:svg="http://www.w3.org/2000/svg">
 <g class="layer">
  <title>Layer 1</title>
  <path d="m50,0l-4.62,8l0,9.32l-45.38,0l22.69,39.3l-8.07,4.66l-4.62,8l9.24,0l8.07,-4.66l22.69,39.3l4,-6.92l18.69,-32.38l8.07,4.66l9.24,0l-4.62,-8l-8.07,-4.66l22.69,-39.3l-45.38,0l0,-9.32l-4.62,-8zm-24.76,26.56l20.14,0l0,11.63l-20.14,-11.63zm29.38,0l20.14,0l-20.14,11.63l0,-11.63zm-34,8l20.14,11.63l-10.07,5.81l-10.07,-17.44zm58.76,0l-10.07,17.44l-10.07,-5.81l20.14,-11.63zm-34,19.63l0,23.26l-10.07,-17.45l10.07,-5.81zm9.24,0l10.07,5.81l-10.07,17.45l0,-23.26z" fill="#000000" id="svg_1" stroke-width="1.15"/>
 </g>
</svg>