<svg xmlns="http://www.w3.org/2000/svg" width="500" height="519.62097" viewBox="-43.4 -40 100 103.92419"><path d="m6.6-40-4.619 8v9.32H-43.4l22.69 39.302-8.072 4.66-4.618 8h9.237l8.072-4.66L6.6 63.924l4-6.928 18.691-32.374 8.072 4.66H46.6l-4.618-8-8.072-4.66L56.6-22.679H11.219V-32Zm-24.763 26.558H1.981v11.63zm29.382 0h20.144L11.219-1.812ZM-22.78-5.44-2.638 6.189l-10.07 5.814Zm58.758 0-10.07 17.443-10.071-5.814ZM1.98 14.189v23.258l-10.07-17.444Zm9.238 0 10.07 5.814-10.07 17.444z" style="color:#000;fill:#fff;stroke-width:1.15471"/></svg>