<svg xmlns="http://www.w3.org/2000/svg" width="500mm" height="492.802mm" viewBox="0 0 500 492.802"><path d="M184.502 0C78.203 28.89 0 126.374 0 242.206c.26 106.61 67.609 201.415 167.94 236.408.163-48.853 1.743-84.304-4.885-113.763-9.126-40.563-29.98-80.607-59.533-119.794l-86.92-83.549h96.587c48.953 85.685 65.936 103.083 72.777 209.463v113.393c6.497 1.771 13.072 3.182 19.679 4.42l.074-114.84c-1.705-43.982-8.903-84.216-25.665-128.811-30.283-63.746-64.62-122.61-98.305-183.265h97.62l32.907 134.836c3.806 25.559 7.638 51.113 9.763 76.952 3.56 72.9 1.225 145.213 1.678 217.803a276.979 276.979 0 0 0 16.18 1.343V284.647c-1.427-24.561-3.554-49.239-7.422-74.205C215.545 137.56 200.32 68.71 184.502 0Zm131.61.167c-15.804 68.654-31.019 137.452-47.935 210.275-3.868 24.966-5.995 49.644-7.422 74.205v208.128c4.949-.275 9.888-.684 14.813-1.22.456-72.453-1.882-144.627 1.679-217.39 2.663-25.888 6.279-51.492 10.624-76.776L320.672 62.86h98.482c-33.684 60.515-69.426 120.108-99.709 183.708-16.762 44.492-23.958 84.635-25.663 128.516l-.133 113.86c6.452-1.185 12.874-2.533 19.224-4.227V371.266c7.988-106.444 25.169-123.445 73.626-208.384h97.717l-87.174 82.966c-30.127 38.146-49.241 75.546-60.915 119.865-7.713 29.287-5.185 64.503-5.018 113.653C432.076 444.608 499.919 349.342 500 242.206c0-115.61-77.902-212.941-183.888-242.04Z" style="opacity:1;fill:#009b63;fill-opacity:1;stroke:none;stroke-width:13.8908;stroke-linecap:round;stroke-linejoin:round"/></svg>