<svg version="1.1" xmlns="http://www.w3.org/2000/svg" xmlns:xlink="http://www.w3.org/1999/xlink" width="500mm" height="492.802mm" viewBox="0,0,256,252.3125"><g fill="#000000" fill-rule="nonzero" stroke="none" stroke-width="13.8908" stroke-linecap="round" stroke-linejoin="round" stroke-miterlimit="10" stroke-dasharray="" stroke-dashoffset="0" font-family="none" font-weight="none" font-size="none" text-anchor="none" style="mix-blend-mode: normal"><g transform="translate(0,-0.00106) scale(0.512,0.512)"><path d="M184.502,0c-106.299,28.89 -184.502,126.374 -184.502,242.206c0.26,106.61 67.609,201.415 167.94,236.408c0.163,-48.853 1.743,-84.304 -4.885,-113.763c-9.126,-40.563 -29.98,-80.607 -59.533,-119.794l-86.92,-83.549h96.587c48.953,85.685 65.936,103.083 72.777,209.463v113.393c6.497,1.771 13.072,3.182 19.679,4.42l0.074,-114.84c-1.705,-43.982 -8.903,-84.216 -25.665,-128.811c-30.283,-63.746 -64.62,-122.61 -98.305,-183.265h97.62l32.907,134.836c3.806,25.559 7.638,51.113 9.763,76.952c3.56,72.9 1.225,145.213 1.678,217.803c5.37905,0.60567 10.7747,1.05353 16.18,1.343v-208.155c-1.427,-24.561 -3.554,-49.239 -7.422,-74.205c-16.93,-72.882 -32.155,-141.732 -47.973,-210.442zM316.112,0.167c-15.804,68.654 -31.019,137.452 -47.935,210.275c-3.868,24.966 -5.995,49.644 -7.422,74.205v208.128c4.949,-0.275 9.888,-0.684 14.813,-1.22c0.456,-72.453 -1.882,-144.627 1.679,-217.39c2.663,-25.888 6.279,-51.492 10.624,-76.776l32.801,-134.529h98.482c-33.684,60.515 -69.426,120.108 -99.709,183.708c-16.762,44.492 -23.958,84.635 -25.663,128.516l-0.133,113.86c6.452,-1.185 12.874,-2.533 19.224,-4.227v-113.451c7.988,-106.444 25.169,-123.445 73.626,-208.384h97.717l-87.174,82.966c-30.127,38.146 -49.241,75.546 -60.915,119.865c-7.713,29.287 -5.185,64.503 -5.018,113.653c100.967,-34.758 168.81,-130.024 168.891,-237.16c0,-115.61 -77.902,-212.941 -183.888,-242.04z"></path></g></g></svg>