<svg xmlns="http://www.w3.org/2000/svg" width="500" height="440.89301" viewBox="-65.2 -60 100 88.178601"><path d="M-17.298-59.987a168.76 168.76 0 0 0-20.914 1.563 130.405 130.405 0 0 0 9.785 35.244h8.42a122.734 122.734 0 0 1-9.34-28.527 161.088 161.088 0 0 1 28.293 0 122.734 122.734 0 0 1-13.268 36.185L-9.9-7.865A130.405 130.405 0 0 0 7.812-58.424a168.76 168.76 0 0 0-25.11-1.563Zm.886 38.347A130.405 130.405 0 0 0-65.2-11.68 168.76 168.76 0 0 0-42.188 28.18a130.405 130.405 0 0 0 25.63-26.096l-4.21-7.292a122.734 122.734 0 0 1-20.036 22.35 161.088 161.088 0 0 1-14.146-24.5 122.734 122.734 0 0 1 37.971-6.603l4.421-7.657a130.405 130.405 0 0 0-3.854-.021zm15.797.813-4.21 7.291A122.734 122.734 0 0 1 24.55-7.36a161.088 161.088 0 0 1-14.146 24.502A122.734 122.734 0 0 1-14.3-12.441h-8.842a130.405 130.405 0 0 0 34.929 40.62A168.76 168.76 0 0 0 34.8-11.68 130.405 130.405 0 0 0-.615-20.827Z" style="fill:#4553a3;fill-opacity:1;stroke-width:.767087"/></svg>