<svg xmlns="http://www.w3.org/2000/svg" width="500" height="500" version="1.0"><path d="m249.977 25-9.606 7.647v23.127c-64.514 3.135-120.765 37.772-153.776 88.825l-20.05-11.564-11.424 4.477 1.819 12.123 20.003 11.563c-13.693 26.618-21.402 56.8-21.402 88.779 0 32 7.739 62.189 21.448 88.825l-20.003 11.563-1.818 12.17 11.424 4.476 20.05-11.563c33.027 51.03 89.279 85.657 153.776 88.778v23.127l9.605 7.647 9.606-7.647v-23.127c64.484-3.15 120.757-37.787 153.776-88.825l20.05 11.564 11.424-4.477-1.819-12.17-20.05-11.563c13.698-26.622 21.45-56.8 21.45-88.778 0-31.98-7.751-62.161-21.45-88.779l20.004-11.563 1.818-12.17-11.424-4.476-20.003 11.563c-33.027-51.037-89.319-85.643-153.823-88.778V32.647L249.977 25zm0 46.44c98.563 0 178.582 79.973 178.582 178.537 0 98.563-80.019 178.582-178.582 178.582-98.564 0-178.536-80.019-178.536-178.582 0-98.564 79.972-178.536 178.536-178.536zm0 7.181c-94.614 0-171.402 76.742-171.402 171.356 0 94.613 76.788 171.402 171.402 171.402 94.613 0 171.402-76.79 171.402-171.402 0-94.614-76.789-171.356-171.402-171.356zm0 4.057c92.356 0 167.345 74.943 167.345 167.299 0 92.356-74.99 167.345-167.345 167.345-92.356 0-167.299-74.99-167.299-167.345 0-92.356 74.943-167.299 167.299-167.299zm-49.332 17.951v14.828h39.913v-14.828h-39.913zm53.668 0v14.828h13.056v33.245h-13.056v14.828h45.042v-14.828h-19.21v-33.245h19.21v-14.828h-45.042zm-53.668 24.014v14.827h39.913v-14.827h-39.913zm0 24.06v14.827h39.913v-14.828h-39.913zm41.405 25.038v3.59h-41.405v5.083h41.405v5.642h-41.825l-2.144 1.771V213.887l2.144 1.772h41.825v3.077h-30.681l-13.288 10.911v16.18h20.003v-20.47h23.966v20.983h15.9v-20.983h23.966v20.47h20.003v-16.18l-13.288-10.91H257.95v-3.078h41.825l2.144-1.772V189.827l-2.144-1.771H257.95v-5.642h41.405v-5.083H257.95v-3.59h-15.9zm-28.07 19.397h28.07v6.155h-28.07V193.138zm43.97 0h28.07V199.293h-28.07v-6.155zm-43.97 11.284h28.07v6.108h-28.07V204.422zm43.97 0h28.07V210.53h-28.07v-6.108z" style="opacity:1;fill:#fff;fill-opacity:1;stroke:none;stroke-width:5;stroke-linecap:round;stroke-linejoin:round;stroke-miterlimit:4;stroke-dasharray:none;stroke-opacity:1"/></svg>