<?xml version="1.0"?>
<svg width="500" height="500" xmlns="http://www.w3.org/2000/svg" xmlns:svg="http://www.w3.org/2000/svg" version="1.0">
 <g class="layer">
  <title>Layer 1</title>
  <path d="m249.98,25l-9.61,7.65l0,23.12c-64.51,3.14 -120.76,37.78 -153.77,88.83l-20.05,-11.57l-11.43,4.48l1.82,12.12l20,11.57c-13.69,26.62 -21.4,56.8 -21.4,88.78c0,32 7.74,62.19 21.45,88.82l-20,11.56l-1.82,12.17l11.42,4.48l20.05,-11.56c33.03,51.03 89.28,85.65 153.78,88.78l0,23.12l9.6,7.65l9.61,-7.65l0,-23.12c64.48,-3.15 120.76,-37.79 153.78,-88.83l20.05,11.56l11.42,-4.47l-1.82,-12.17l-20.05,-11.57c13.7,-26.62 21.45,-56.8 21.45,-88.77c0,-31.98 -7.75,-62.16 -21.45,-88.78l20,-11.57l1.82,-12.17l-11.42,-4.47l-20,11.56c-33.03,-51.04 -89.32,-85.64 -153.83,-88.78l0,-23.12l-9.6,-7.65zm0,46.44c98.56,0 178.58,79.97 178.58,178.54c0,98.56 -80.02,178.58 -178.58,178.58c-98.57,0 -178.54,-80.02 -178.54,-178.58c0,-98.57 79.97,-178.54 178.54,-178.54zm0,7.18c-94.62,0 -171.4,76.74 -171.4,171.36c0,94.61 76.78,171.4 171.4,171.4c94.61,0 171.4,-76.79 171.4,-171.4c0,-94.62 -76.79,-171.36 -171.4,-171.36zm0,4.06c92.35,0 167.34,74.94 167.34,167.3c0,92.35 -74.99,167.34 -167.34,167.34c-92.36,0 -167.3,-74.99 -167.3,-167.34c0,-92.36 74.94,-167.3 167.3,-167.3zm-49.33,17.95l0,14.83l39.91,0l0,-14.83l-39.91,0zm53.66,0l0,14.83l13.06,0l0,33.24l-13.06,0l0,14.83l45.05,0l0,-14.83l-19.21,0l0,-33.24l19.21,0l0,-14.83l-45.05,0zm-53.66,24.01l0,14.83l39.91,0l0,-14.83l-39.91,0zm0,24.06l0,14.83l39.91,0l0,-14.83l-39.91,0zm41.4,25.04l0,3.59l-41.4,0l0,5.08l41.4,0l0,5.65l-41.82,0l-2.15,1.77l0,24.06l2.15,1.77l41.82,0l0,3.08l-30.68,0l-13.29,10.91l0,16.18l20,0l0,-20.47l23.97,0l0,20.98l15.9,0l0,-20.98l23.97,0l0,20.47l20,0l0,-16.18l-13.29,-10.91l-30.68,0l0,-3.08l41.83,0l2.14,-1.77l0,-24.06l-2.14,-1.77l-41.83,0l0,-5.65l41.41,0l0,-5.08l-41.41,0l0,-3.59l-15.9,0zm-28.07,19.4l28.07,0l0,6.15l-28.07,0l0,-6.15zm43.97,0l28.07,0l0,6.15l-28.07,0l0,-6.15zm-43.97,11.28l28.07,0l0,6.11l-28.07,0l0,-6.11zm43.97,0l28.07,0l0,6.11l-28.07,0l0,-6.11z" fill="#000000" id="svg_1" stroke-linecap="round" stroke-linejoin="round" stroke-miterlimit="4" stroke-width="5"/>
 </g>
</svg>