<svg xmlns="http://www.w3.org/2000/svg" width="500" height="500" version="1.0"><path d="m243.75 0-77.214 135.385c16.722-12.203 36.204-20.85 57.337-24.791l19.877-34.84zm12.513 0v75.767l19.864 34.827c21.138 3.941 40.624 12.585 57.35 24.79zm-7.117 120.695c-.813.004-1.624.02-2.437.04-20.688.503-41.542 5.992-60.765 16.957-1.614.92-3.186 1.888-4.745 2.867a130.294 130.294 0 0 0-6.4 4.263 128.938 128.938 0 0 0-10.179 8.054 128.43 128.43 0 0 0-4.718 4.354 128.324 128.324 0 0 0-8.89 9.58c-33.817 40.272-40.885 98.932-13.32 147.259a127.796 127.796 0 0 0 8.055 12.382c8.223-3.579 15.878-8.454 22.523-14.48a74.563 74.563 0 0 0 7.703-7.756 92.524 92.524 0 0 1-5.67-8.746c-19.95-34.974-14.327-77.566 10.91-106.176a92.048 92.048 0 0 1 10.87 15.238c19.95 34.974 14.327 77.564-10.91 106.175a91.574 91.574 0 0 1-10.727 10.336 91.306 91.306 0 0 1-6.074 4.549 91.822 91.822 0 0 1-6.53 4.105 92.416 92.416 0 0 1-6.803 3.493 128.364 128.364 0 0 0 30.134 26.251 130.844 130.844 0 0 0 8.447-5.774 128.97 128.97 0 0 0 7.846-6.321 128.175 128.175 0 0 0 7.26-6.83 127.516 127.516 0 0 0 6.634-7.312c33.827-40.272 40.89-98.94 13.321-147.272-.276-.484-.54-.968-.82-1.447-3.724-6.34-7.936-12.218-12.514-17.674 22.452-10.458 47.354-11.041 69.394-3.22a130.862 130.862 0 0 1 2.802-3.297c7.935-9.224 17.14-17.446 27.241-24.36-18.93-10.07-40.145-15.353-61.638-15.238zm69.68 19.864a130.552 130.552 0 0 0-8.446 5.775 128.84 128.84 0 0 0-7.847 6.32 128.426 128.426 0 0 0-7.26 6.844 127.707 127.707 0 0 0-6.633 7.312c-26.037 31.006-36.207 72.915-26.929 112.614l36.287-9.723c-6.26-28.527 1.57-58.518 20.829-80.368a91.565 91.565 0 0 1 10.883 15.21c19.947 34.972 14.321 77.553-10.91 106.163a92.049 92.049 0 0 1-10.87-15.237 91.94 91.94 0 0 1-7.769-17.713l-36.287 9.723c2.757 9.082 6.558 18 11.458 26.59 3.93 6.89 8.421 13.25 13.346 19.12-22.401 10.436-47.242 11.05-69.25 3.285-6.189 7.684-13.188 14.708-20.893 20.868a124.843 124.843 0 0 1-9.111 6.856c37.82 20.012 84.751 20.877 124.645-1.877 1.61-.919 3.175-1.891 4.73-2.868 4.06-2.547 7.949-5.27 11.627-8.185a126.926 126.926 0 0 0 2.673-2.19 128.377 128.377 0 0 0 9.11-8.394 120.698 120.698 0 0 0 2.36-2.463 128.269 128.269 0 0 0 4.431-5.018c33.817-40.273 40.886-98.933 13.32-147.26a131.815 131.815 0 0 0-.834-1.446c-3.726-6.345-7.968-12.2-12.551-17.661-1.034-1.233-2.042-2.49-3.116-3.676-.225-.25-.463-.482-.69-.73a128.364 128.364 0 0 0-4.98-5.122 128.344 128.344 0 0 0-1.198-1.147 128.181 128.181 0 0 0-5.318-4.784c-.22-.186-.43-.388-.652-.573a128.214 128.214 0 0 0-6.113-4.784c-.558-.41-1.13-.798-1.694-1.199a128.83 128.83 0 0 0-4.797-3.258c-.52-.33-1.03-.677-1.55-1.004zm-183.454 25.977L0 243.75h75.754l34.853-19.877c3.94-21.131 12.565-40.616 24.765-57.337zm229.269 0c12.2 16.721 20.824 36.206 24.765 57.337l34.84 19.877H500zM0 256.263l135.385 77.213c-12.202-16.72-20.835-36.206-24.778-57.337l-34.84-19.876Zm424.233 0-34.827 19.864c-3.942 21.135-12.574 40.626-24.778 57.35L500 256.262h-75.767zM262.05 280.858c.41 1.665.864 3.323 1.342 4.979zm50.181 36.613a82.393 82.393 0 0 1-1.63 1.46 91.517 91.517 0 0 1-5.343 4.353c.61-.464 1.212-.946 1.811-1.421a91.451 91.451 0 0 0 3.533-2.933 93.468 93.468 0 0 0 1.629-1.46zM166.523 364.6 243.75 500v-75.754l-19.877-34.84c-21.14-3.944-40.624-12.596-57.35-24.804zm166.966 0c-16.728 12.212-36.218 20.862-57.362 24.805l-19.864 34.827V500z" style="opacity:1;fill:#fff;fill-opacity:1;fill-rule:nonzero;stroke:none;stroke-width:8.3418;stroke-linecap:round;stroke-linejoin:round;stroke-miterlimit:4;stroke-dasharray:none;stroke-opacity:1"/></svg>