<?xml version="1.0"?>
<svg width="500" height="500" xmlns="http://www.w3.org/2000/svg" xmlns:svg="http://www.w3.org/2000/svg" version="1.0">
 <g class="layer">
  <title>Layer 1</title>
  <path d="m243.75,0l-77.21,135.38c16.72,-12.2 36.2,-20.85 57.33,-24.79l19.88,-34.84l0,-75.75zm12.51,0l0,75.77l19.87,34.82c21.14,3.94 40.62,12.59 57.35,24.79l-77.22,-135.38zm-7.11,120.69c-0.82,0.01 -1.63,0.02 -2.44,0.04c-20.69,0.51 -41.54,6 -60.77,16.96c-1.61,0.92 -3.18,1.89 -4.74,2.87a130.29,130.29 0 0 0 -6.4,4.26a128.94,128.94 0 0 0 -10.18,8.06a128.43,128.43 0 0 0 -4.72,4.35a128.32,128.32 0 0 0 -8.89,9.58c-33.82,40.27 -40.88,98.93 -13.32,147.26a127.8,127.8 0 0 0 8.06,12.38c8.22,-3.58 15.88,-8.45 22.52,-14.48a74.56,74.56 0 0 0 7.7,-7.75a92.52,92.52 0 0 1 -5.67,-8.75c-19.95,-34.97 -14.32,-77.57 10.91,-106.18a92.05,92.05 0 0 1 10.87,15.24c19.95,34.97 14.33,77.57 -10.91,106.18a91.57,91.57 0 0 1 -10.72,10.33a91.31,91.31 0 0 1 -6.08,4.55a91.82,91.82 0 0 1 -6.53,4.11a92.42,92.42 0 0 1 -6.8,3.49a128.36,128.36 0 0 0 30.13,26.25a130.84,130.84 0 0 0 8.45,-5.77a128.97,128.97 0 0 0 7.85,-6.32a128.18,128.18 0 0 0 7.26,-6.83a127.52,127.52 0 0 0 6.63,-7.32c33.83,-40.27 40.89,-98.94 13.32,-147.27c-0.27,-0.48 -0.54,-0.97 -0.82,-1.45c-3.72,-6.34 -7.93,-12.21 -12.51,-17.67c22.45,-10.46 47.35,-11.04 69.39,-3.22a130.86,130.86 0 0 1 2.8,-3.3c7.94,-9.22 17.14,-17.44 27.24,-24.36c-18.93,-10.07 -40.14,-15.35 -61.63,-15.24zm69.68,19.87a130.55,130.55 0 0 0 -8.45,5.77a128.84,128.84 0 0 0 -7.85,6.32a128.43,128.43 0 0 0 -7.26,6.85a127.71,127.71 0 0 0 -6.63,7.31c-26.04,31.01 -36.21,72.92 -26.93,112.61l36.29,-9.72c-6.26,-28.53 1.57,-58.52 20.83,-80.37a91.57,91.57 0 0 1 10.88,15.21c19.95,34.98 14.32,77.56 -10.91,106.17a92.05,92.05 0 0 1 -10.87,-15.24a91.94,91.94 0 0 1 -7.77,-17.71l-36.29,9.72c2.76,9.08 6.56,18 11.46,26.59c3.93,6.89 8.42,13.25 13.35,19.12c-22.4,10.44 -47.24,11.05 -69.25,3.28c-6.19,7.69 -13.19,14.71 -20.89,20.87a124.84,124.84 0 0 1 -9.12,6.86c37.82,20.01 84.76,20.88 124.65,-1.88c1.61,-0.92 3.17,-1.89 4.73,-2.87c4.06,-2.54 7.95,-5.27 11.63,-8.18a126.93,126.93 0 0 0 2.67,-2.19a128.38,128.38 0 0 0 9.11,-8.4a120.7,120.7 0 0 0 2.36,-2.46a128.27,128.27 0 0 0 4.43,-5.02c33.82,-40.27 40.89,-98.93 13.32,-147.26a131.82,131.82 0 0 0 -0.83,-1.44c-3.73,-6.35 -7.97,-12.2 -12.56,-17.66c-1.03,-1.24 -2.04,-2.49 -3.11,-3.68c-0.23,-0.25 -0.46,-0.48 -0.69,-0.73a128.36,128.36 0 0 0 -4.98,-5.12a128.34,128.34 0 0 0 -1.2,-1.15a128.18,128.18 0 0 0 -5.32,-4.78c-0.22,-0.19 -0.43,-0.39 -0.65,-0.58a128.21,128.21 0 0 0 -6.11,-4.78c-0.56,-0.41 -1.13,-0.8 -1.7,-1.2a128.83,128.83 0 0 0 -4.79,-3.26c-0.52,-0.33 -1.03,-0.67 -1.55,-1zm-183.46,25.98l-135.37,77.21l75.75,0l34.86,-19.88c3.94,-21.13 12.56,-40.61 24.76,-57.33zm229.27,0c12.2,16.72 20.83,36.2 24.77,57.33l34.84,19.88l75.75,0l-135.36,-77.21zm-364.64,89.72l135.38,77.22c-12.2,-16.72 -20.83,-36.21 -24.77,-57.34l-34.84,-19.88l-75.77,0zm424.23,0l-34.82,19.87c-3.95,21.13 -12.58,40.62 -24.78,57.35l135.37,-77.22l-75.77,0zm-162.18,24.6c0.41,1.66 0.86,3.32 1.34,4.98l-1.34,-4.98zm50.18,36.61a82.39,82.39 0 0 1 -1.63,1.46a91.52,91.52 0 0 1 -5.34,4.35c0.61,-0.46 1.21,-0.94 1.81,-1.42a91.45,91.45 0 0 0 3.53,-2.93a93.47,93.47 0 0 0 1.63,-1.46zm-145.71,47.13l77.23,135.4l0,-75.75l-19.88,-34.84c-21.14,-3.95 -40.62,-12.6 -57.35,-24.81zm166.97,0c-16.73,12.21 -36.22,20.86 -57.36,24.81l-19.87,34.82l0,75.77l77.23,-135.4z" fill="#000000" fill-rule="nonzero" id="svg_1" stroke-linecap="round" stroke-linejoin="round" stroke-miterlimit="4" stroke-width="8.34"/>
 </g>
</svg>