<svg xmlns="http://www.w3.org/2000/svg" width="500" height="519.44702" version="1.0"><path d="m250 0-37.488 22.493v19.33C92.27 59.923 0 163.749 0 289.01c0 103.573 63.1 192.513 152.921 230.436l59.005-59.005a176.008 176.008 0 0 0 38.074 4.14c13.072 0 25.814-1.426 38.074-4.14l59.005 59.005C436.901 481.524 500 392.584 500 289.011c0-125.262-92.27-229.088-212.512-247.188v-19.33Zm-37.488 117.463V353.64l-72.321 72.322c-40.075-32.189-65.761-81.588-65.761-136.95 0-84.05 59.159-154.36 138.082-171.548Zm74.976 0c78.923 17.187 138.082 87.498 138.082 171.548 0 55.362-25.686 104.761-65.76 136.95l-72.322-72.322z" style="fill:#0066cb;fill-opacity:1;stroke:none;stroke-width:1.24961"/></svg>