<?xml version="1.0"?>
<svg width="500" height="519.44702" xmlns="http://www.w3.org/2000/svg" xmlns:svg="http://www.w3.org/2000/svg" version="1.0">
 <g class="layer">
  <title>Layer 1</title>
  <path d="m250,0l-37.49,22.49l0,19.33c-120.24,18.1 -212.51,121.93 -212.51,247.19c0,103.57 63.1,192.51 152.92,230.44l59.01,-59.01a176.01,176.01 0 0 0 38.07,4.14c13.07,0 25.81,-1.42 38.07,-4.14l59.01,59.01c89.82,-37.93 152.92,-126.87 152.92,-230.44c0,-125.26 -92.27,-229.09 -212.51,-247.19l0,-19.33l-37.49,-22.49zm-37.49,117.46l0,236.18l-72.32,72.32c-40.07,-32.19 -65.76,-81.59 -65.76,-136.95c0,-84.05 59.16,-154.36 138.08,-171.55zm74.98,0c78.92,17.19 138.08,87.5 138.08,171.55c0,55.36 -25.69,104.76 -65.76,136.95l-72.32,-72.32l0,-236.18z" fill="#000000" id="svg_1" stroke-width="1.25"/>
 </g>
</svg>