<?xml version="1.0"?>
<svg width="132.29167" height="125.11431" xmlns="http://www.w3.org/2000/svg" xmlns:svg="http://www.w3.org/2000/svg">
 <g class="layer">
  <title>Layer 1</title>
  <path d="m54.42,0c-10.96,19.73 -4.99,41.78 8.84,55.57a40.9,40.9 0 0 1 -2.88,2.26a40.69,40.69 0 0 1 -2.59,1.71c-8.94,-17.5 -28.28,-30 -50.54,-25.42l3.1,9.45c23.62,-5.95 37.52,5.7 43.99,17.87c-12.42,6.07 -30.63,7.38 -46.26,-11.49l-8.08,5.79c15.31,16.92 38.43,18.22 56.02,9.26a40.81,40.81 0 0 1 1.17,3.13c0.35,1.08 0.67,2.2 0.95,3.37c-19.42,3.04 -37.32,17.53 -39.91,40.1l9.95,0c1.71,-24.31 17.12,-33.88 30.7,-36.23c1.94,13.61 -2.41,31.13 -24.88,40.3l3.1,9.44c20.58,-9.46 28.78,-30.87 25.69,-50.23a40.8,40.8 0 0 1 3.33,-0.13c1.06,0 2.16,0.04 3.28,0.13c-3.08,19.35 5.12,40.77 25.69,50.23l3.1,-9.44c-22.47,-9.17 -26.81,-26.69 -24.87,-40.31c13.58,2.35 29.02,11.91 30.73,36.24l9.95,0c-2.59,-22.59 -20.51,-37.08 -39.94,-40.1a40.85,40.85 0 0 1 0.95,-3.36a40.82,40.82 0 0 1 1.18,-3.18c17.6,9 40.77,7.73 56.1,-9.22l-8.08,-5.79c-15.66,18.91 -33.92,17.56 -46.34,11.45c6.49,-12.15 20.38,-23.77 43.97,-17.83l3.1,-9.45c-22.23,-4.57 -41.57,7.89 -50.52,25.38a40.64,40.64 0 0 1 -2.51,-1.67a40.9,40.9 0 0 1 -2.88,-2.26c13.83,-13.79 19.8,-35.84 8.84,-55.57l-8.08,5.79c12.65,20.58 5.9,37.22 -3.64,47.07c-9.55,-9.85 -16.29,-26.49 -3.64,-47.07l-8.09,-5.79zm11.73,58.22a48.93,48.93 0 0 0 3.52,2.74a48.82,48.82 0 0 0 3.11,2.08a48.88,48.88 0 0 0 -1.43,3.89a48.9,48.9 0 0 0 -1.18,4.11c-1.35,-0.1 -2.7,-0.15 -4.05,-0.14c-1.37,-0.01 -2.73,0.04 -4.09,0.15a48.91,48.91 0 0 0 -1.18,-4.12a48.88,48.88 0 0 0 -1.42,-3.84a48.84,48.84 0 0 0 3.19,-2.13a48.93,48.93 0 0 0 3.53,-2.74z" fill="#000000" id="svg_1" stroke-width="0.33px"/>
 </g>
</svg>