<svg xmlns="http://www.w3.org/2000/svg" width="500" height="472.87299" viewBox="0 0 132.29167 125.11431"><path d="M54.421 0c-10.964 19.732-4.99 41.776 8.843 55.57a40.897 40.897 0 0 1-2.885 2.258 40.687 40.687 0 0 1-2.587 1.716c-8.941-17.507-28.286-30-50.54-25.42l3.1 9.447c23.62-5.95 37.516 5.702 43.989 17.867-12.419 6.075-30.633 7.385-46.256-11.489L0 55.736c15.307 16.923 38.428 18.223 56.02 9.262a40.807 40.807 0 0 1 1.166 3.136c.356 1.072.674 2.2.953 3.367-19.42 3.04-37.32 17.526-39.905 40.097h9.943c1.71-24.306 17.123-33.875 30.702-36.23 1.937 13.614-2.405 31.135-24.875 40.3l3.098 9.446c20.575-9.462 28.776-30.878 25.692-50.23a40.8 40.8 0 0 1 3.322-.13c1.062-.004 2.162.04 3.284.126-3.085 19.354 5.115 40.772 25.69 50.234l3.1-9.447c-22.474-9.165-26.814-26.69-24.875-40.305 13.588 2.344 29.027 11.908 30.739 36.236h9.942c-2.587-22.585-20.506-37.075-39.94-40.103a40.85 40.85 0 0 1 .951-3.36 40.821 40.821 0 0 1 1.184-3.178c17.6 9.007 40.77 7.729 56.1-9.221l-8.084-5.787c-15.657 18.913-33.914 17.558-46.333 11.45 6.481-12.15 20.372-23.771 43.967-17.828l3.1-9.447c-22.235-4.575-41.566 7.89-50.517 25.374a40.637 40.637 0 0 1-2.511-1.67 40.897 40.897 0 0 1-2.886-2.258C82.861 41.776 88.835 19.732 77.871 0l-8.085 5.787c12.65 20.587 5.905 37.227-3.64 47.078-9.546-9.85-16.29-26.491-3.64-47.078Zm11.725 58.223a48.93 48.93 0 0 0 3.525 2.738 48.818 48.818 0 0 0 3.109 2.077 48.885 48.885 0 0 0-1.433 3.896 48.904 48.904 0 0 0-1.181 4.109c-1.349-.103-2.7-.15-4.05-.141-1.363-.01-2.727.039-4.088.144a48.907 48.907 0 0 0-1.182-4.112 48.879 48.879 0 0 0-1.413-3.846 48.84 48.84 0 0 0 3.189-2.127 48.93 48.93 0 0 0 3.524-2.738z" style="opacity:1;fill:#b75991;fill-opacity:1;stroke:none;stroke-width:.33461px;stroke-linecap:butt;stroke-linejoin:miter;stroke-opacity:1"/></svg>