<svg xmlns="http://www.w3.org/2000/svg" width="500" height="405.68301" viewBox="0 0 500 405.68301"><path d="M205.129 87.49c-3.942-20.326-11.132-40.05-20.391-58.521-3.786-7.551-8.21-17.317-18.209-16.072-9.198 1.146-20.035 12.757-27.393 18.115-2.065 1.505-6.976 6.672-9.672 6.203-2.702-.471-5.89-6.767-7.4-8.869-5.606-7.807-11.021-17.287-18.414-23.524C97.776-.133 90.703 2.46 85.65 7.074c-9.017 8.233-17.382 17.157-24.812 26.875-13.677 17.89-23.492 38.482-32.162 59.145C6.369 146.256-3.063 206.872.87 264.3c2.08 30.373 6.12 60.28 18.646 88.405 4.434 9.956 10.548 18.958 17.396 27.393 4.538 5.59 10.102 10.71 16.31 14.404 41.248 24.544 83.177-8.677 105.995-42.42 8.747-12.933 15.762-27.305 21.718-41.712 2.344-5.67 3.972-16.004 8.268-20.35 3.333-3.37 12.056-3.492 16.548-4.735 9.703-2.685 19.224-5.696 28.638-9.276 4.475-1.701 10.104-5.236 14.827-5.756 3.355-.37 7.574 8.995 9.248 11.479 8.061 11.958 17.152 23.674 26.976 34.232 32.38 34.802 69.109 63.776 113.93 80.679 10.3 3.884 22.587 8.165 33.62 8.925 4.39.302 9.627.233 12.869-3.175 3.858-4.056 3.318-9.665 3.318-14.824v-32.374c9.176-1.084 19.37-1.222 28.629-.533 6.654.497 14.98 1.325 19.686-4.472 3.67-4.523 2.516-10.325 1.49-15.54-2.309-11.729-5.99-23.064-10.16-34.241-14.229-38.149-40.957-74.058-70.952-101.27-8.63-7.83-18.248-19.902-29.083-24.49 2.573-7.244 12.61-13.986 17.585-19.922 16.442-19.614 32.12-40.33 43.289-63.502 3.369-6.99 10.936-18.373 5.335-26.123-4.892-6.768-17.639-6.207-25.12-7.446-7.426-1.23-14.904-3.192-22.412-3.785.87-11.001 3.413-22.11 5.239-32.997.844-5.038 2.392-11.626-.79-16.16C408.13-.673 401.366-.28 395.635.363a292.087 292.087 0 0 0-39.222 7.144c-35.99 9.113-70.313 25.526-101.479 45.552-11.455 7.36-22.535 15.147-33.619 23.045-5.29 3.77-10.305 8.593-16.186 11.388m178.055-57.277c-.409 9.526-2.602 19.209-3.998 28.638-.703 4.754-2.343 10.058.667 14.317 3.251 4.602 8.734 5.303 13.915 6.178 9.176 1.55 19.142 2.225 28.015 5.03-5.317 12.772-14.031 24.529-22.331 35.487-21.719 28.675-49.015 53.48-77.903 74.781-11.717 8.64-23.731 17.037-36.109 24.711-2.662 1.651-11.36 5.254-11.234 8.863.182 5.186 5.984 13.026 8.62 17.405.87 1.445 1.948 4.073 3.924 4.17 4.991.242 13.308-7.35 17.367-9.965 15.607-10.052 30.917-20.615 45.448-32.185 4.432-3.528 8.7-7.251 13.077-10.845 1.731-1.421 3.758-3.581 6.223-2.87 3.334.963 6.649 4.874 9.34 7.001a272.854 272.854 0 0 1 23.656 21.036c28.4 28.398 58.228 64.688 66.615 105.215-12.127 3.13-28.522-3.759-39.844 1.93-6.33 3.18-6.849 9.215-6.849 15.502v29.883c-6.111-.28-12.425-3.227-18.054-5.479-11.873-4.748-23.427-10.282-34.242-17.132-42.116-26.678-81.493-66.06-103.538-111.242-9.699-19.877-24.46-51.613-10.327-72.84 12.12-18.205 41.693-10.522 58.457-4.55 4.707 1.676 11.87 6.763 16.809 6.599 2.569-.085 5.048-3.053 6.848-4.636 5.168-4.548 10.503-8.938 15.565-13.6-8.54-3.108-16.43-8.158-24.903-11.55-27.421-10.978-61.63-18.396-86.538 2.164-5.149 4.25-9.607 9.623-12.601 15.611-3.262 6.525-5.509 14.492-6.02 21.79-.963 13.737.599 27.954 4.766 41.09 2.57 8.098 7.627 16.58 8.875 24.903-13.248 5.138-26.058 10.592-39.845 14.223-8.826 2.324-18.264 3.83-27.393 3.831-6.727 0-13.296-.376-19.922-1.625-3.304-.623-6.463-1.363-9.339-3.175-21.178-13.341-8.052-42.325.469-59.325 1.931-3.853 4.123-7.554 6.41-11.206 2.955-4.716 6.203-9.245 9.54-13.696 4.183-5.578 12.008-12.152 14.336-18.678 1.04-2.911.374-6.905.374-9.96 0-8.007-.007-17.093-1.868-24.904-28.512 28.512-57.578 62.344-66.832 102.725-8.507 37.119 18.411 66.93 55.626 67.237-7.276 26.6-24.637 54.358-45.448 72.218-15.613 13.4-34.744 17.12-51.05 2.934-4.438-3.862-8.113-8.586-11.292-13.517-13.5-20.94-18.27-47.28-21.179-71.596-6.883-57.516 2.06-117.053 22.085-171.207C58.595 90.856 67.27 72.304 79.107 55.74c4.167-5.83 9.176-14.33 15.827-17.432 6.146 9.293 13.644 17.96 20.475 26.771 2.632 3.396 6.475 7.72 11.276 7.09 9.186-1.206 19.638-11.814 26.77-17.315 2.069-1.596 7.39-7.16 10.187-4.936 3.085 2.452 4.48 9.096 5.801 12.67 4.408 11.92 7.991 24.184 10.11 36.732 5.968 35.347 5.273 71.63.497 107.083-1.984 14.729-6.742 29.434-7.918 44.202 6.995 0 13.765-1.193 20.545-2.88 2.467-.614 5.958-.957 7.727-2.984 4.134-4.736 4.174-17.897 5.193-24.02 3.894-23.37 5.757-47.315 5.757-70.972 0-6.615-.226-13.326-.678-19.923-.201-2.942-1.518-6.947.073-9.696 2.054-3.549 6.832-6.434 9.944-9.03 8.817-7.357 18.091-14.05 27.393-20.76 38.887-28.05 86.898-54.028 135.098-60.125" style="fill:#f39;fill-opacity:1;stroke:none;stroke-width:.622572"/></svg>