<?xml version="1.0"?>
<svg width="500" height="405.68301" xmlns="http://www.w3.org/2000/svg" xmlns:svg="http://www.w3.org/2000/svg">
 <g class="layer">
  <title>Layer 1</title>
  <path d="m205.13,87.49c-3.94,-20.33 -11.13,-40.05 -20.39,-58.52c-3.79,-7.55 -8.21,-17.32 -18.21,-16.07c-9.2,1.14 -20.04,12.75 -27.39,18.11c-2.07,1.51 -6.98,6.67 -9.68,6.2c-2.7,-0.47 -5.89,-6.76 -7.4,-8.86c-5.6,-7.81 -11.02,-17.29 -18.41,-23.53c-5.87,-4.95 -12.95,-2.36 -18,2.25c-9.02,8.24 -17.38,17.16 -24.81,26.88c-13.68,17.89 -23.49,38.48 -32.16,59.14c-22.31,53.17 -31.74,113.78 -27.81,171.21c2.08,30.37 6.12,60.28 18.65,88.4c4.43,9.96 10.54,18.96 17.39,27.4c4.54,5.59 10.1,10.71 16.31,14.4c41.25,24.55 83.18,-8.68 106,-42.42c8.74,-12.93 15.76,-27.3 21.72,-41.71c2.34,-5.67 3.97,-16 8.26,-20.35c3.34,-3.37 12.06,-3.49 16.55,-4.74c9.7,-2.68 19.23,-5.69 28.64,-9.27c4.47,-1.7 10.1,-5.24 14.83,-5.76c3.35,-0.37 7.57,9 9.24,11.48c8.07,11.96 17.16,23.68 26.98,34.23c32.38,34.81 69.11,63.78 113.93,80.68c10.3,3.89 22.59,8.17 33.62,8.93c4.39,0.3 9.63,0.23 12.87,-3.18c3.86,-4.05 3.32,-9.66 3.32,-14.82l0,-32.38c9.17,-1.08 19.37,-1.22 28.63,-0.53c6.65,0.5 14.98,1.33 19.68,-4.47c3.67,-4.52 2.52,-10.33 1.49,-15.54c-2.31,-11.73 -5.99,-23.06 -10.16,-34.24c-14.23,-38.15 -40.95,-74.06 -70.95,-101.27c-8.63,-7.83 -18.25,-19.9 -29.08,-24.49c2.57,-7.25 12.61,-13.99 17.58,-19.92c16.44,-19.62 32.12,-40.33 43.29,-63.51c3.37,-6.99 10.94,-18.37 5.34,-26.12c-4.9,-6.77 -17.64,-6.21 -25.12,-7.44c-7.43,-1.23 -14.91,-3.2 -22.42,-3.79c0.87,-11 3.42,-22.11 5.24,-33c0.85,-5.03 2.39,-11.62 -0.79,-16.16c-3.78,-5.38 -10.54,-4.99 -16.27,-4.35a292.09,292.09 0 0 0 -39.23,7.15c-35.99,9.11 -70.31,25.52 -101.48,45.55c-11.45,7.36 -22.53,15.15 -33.61,23.04c-5.29,3.77 -10.31,8.6 -16.19,11.39m178.05,-57.28c-0.4,9.53 -2.6,19.21 -3.99,28.64c-0.71,4.76 -2.35,10.06 0.66,14.32c3.25,4.6 8.74,5.3 13.92,6.18c9.17,1.55 19.14,2.22 28.01,5.03c-5.31,12.77 -14.03,24.53 -22.33,35.48c-21.72,28.68 -49.01,53.48 -77.9,74.79c-11.72,8.64 -23.73,17.03 -36.11,24.71c-2.66,1.65 -11.36,5.25 -11.23,8.86c0.18,5.19 5.98,13.03 8.62,17.4c0.87,1.45 1.94,4.08 3.92,4.17c4.99,0.25 13.31,-7.35 17.37,-9.96c15.6,-10.05 30.91,-20.62 45.45,-32.19c4.43,-3.52 8.7,-7.25 13.07,-10.84c1.73,-1.42 3.76,-3.58 6.23,-2.87c3.33,0.96 6.64,4.87 9.34,7a272.85,272.85 0 0 1 23.65,21.04c28.4,28.39 58.23,64.68 66.62,105.21c-12.13,3.13 -28.53,-3.76 -39.85,1.93c-6.33,3.18 -6.85,9.22 -6.85,15.5l0,29.89c-6.11,-0.28 -12.42,-3.23 -18.05,-5.48c-11.87,-4.75 -23.43,-10.28 -34.24,-17.13c-42.12,-26.68 -81.5,-66.06 -103.54,-111.25c-9.7,-19.87 -24.46,-51.61 -10.33,-72.84c12.12,-18.2 41.7,-10.52 58.46,-4.55c4.71,1.68 11.87,6.77 16.81,6.6c2.57,-0.08 5.05,-3.05 6.85,-4.63c5.16,-4.55 10.5,-8.94 15.56,-13.6c-8.54,-3.11 -16.43,-8.16 -24.9,-11.55c-27.42,-10.98 -61.63,-18.4 -86.54,2.16c-5.15,4.25 -9.61,9.62 -12.6,15.61c-3.26,6.53 -5.51,14.49 -6.02,21.79c-0.96,13.74 0.6,27.96 4.76,41.09c2.57,8.1 7.63,16.58 8.88,24.9c-13.25,5.14 -26.06,10.6 -39.85,14.23c-8.82,2.32 -18.26,3.83 -27.39,3.83c-6.73,0 -13.29,-0.38 -19.92,-1.63c-3.3,-0.62 -6.46,-1.36 -9.34,-3.17c-21.18,-13.34 -8.05,-42.33 0.47,-59.33c1.93,-3.85 4.12,-7.55 6.41,-11.2c2.95,-4.72 6.2,-9.25 9.54,-13.7c4.18,-5.58 12.01,-12.15 14.34,-18.68c1.04,-2.91 0.37,-6.9 0.37,-9.96c0,-8 -0.01,-17.09 -1.87,-24.9c-28.51,28.51 -57.58,62.34 -66.83,102.72c-8.51,37.12 18.41,66.93 55.63,67.24c-7.28,26.6 -24.64,54.36 -45.45,72.22c-15.62,13.4 -34.75,17.12 -51.05,2.93c-4.44,-3.86 -8.12,-8.58 -11.29,-13.51c-13.5,-20.94 -18.27,-47.28 -21.18,-71.6c-6.89,-57.52 2.06,-117.05 22.08,-171.21c7.05,-19.04 15.72,-37.6 27.56,-54.16c4.16,-5.83 9.17,-14.33 15.82,-17.43c6.15,9.29 13.65,17.96 20.48,26.77c2.63,3.4 6.47,7.72 11.28,7.09c9.18,-1.21 19.63,-11.81 26.77,-17.32c2.06,-1.59 7.39,-7.16 10.18,-4.93c3.09,2.45 4.48,9.09 5.8,12.67c4.41,11.92 7.99,24.18 10.11,36.73c5.97,35.35 5.28,71.63 0.5,107.08c-1.98,14.73 -6.74,29.44 -7.92,44.21c7,0 13.77,-1.2 20.55,-2.88c2.46,-0.62 5.96,-0.96 7.72,-2.99c4.14,-4.73 4.18,-17.9 5.2,-24.02c3.89,-23.37 5.75,-47.31 5.75,-70.97c0,-6.62 -0.22,-13.33 -0.67,-19.92c-0.2,-2.95 -1.52,-6.95 0.07,-9.7c2.05,-3.55 6.83,-6.43 9.94,-9.03c8.82,-7.36 18.09,-14.05 27.4,-20.76c38.88,-28.05 86.89,-54.03 135.09,-60.13" fill="#000000" id="svg_1" stroke-width="0.62"/>
 </g>
</svg>