<?xml version="1.0"?>
<svg width="31.2" height="30" xmlns="http://www.w3.org/2000/svg" xmlns:svg="http://www.w3.org/2000/svg">
 <g class="layer">
  <title>Layer 1</title>
  <path d="m15.6,1l0,2l-8.89,5.13a1.73,1.73 0 1 0 -0.64,2.37l7.8,-4.5l0,24l-13.86,-8l24.25,-14l-3.46,-2l0,12l2.59,-1.5a5.2,5.2 0 1 1 -0.77,8.45l-7.02,4.05l0,-2l8.89,-5.13a1.73,1.73 0 1 0 0.64,-2.37l-7.8,4.5l0,-24l13.86,8l-24.25,14l3.46,2l0,-12l-2.59,1.5a5.2,5.2 0 1 1 0.77,-8.45l7.02,-4.05z" fill="#000000" id="svg_1"/>
 </g>
</svg>