<svg width="60" height="60" viewBox="0 0 60 60" fill="none" xmlns="http://www.w3.org/2000/svg">
<path d="M11.7112 29.262H2V26H11.7112V29.262Z" fill="#00A041"/>
<path d="M11.7112 33.2467H2V29.9847H11.7112V33.2467ZM15.3092 26.256V32.9906H16.6695V30.0461H19.4967V28.7445H16.6695V27.5576H19.5447V26.256H15.3092ZM23.5001 32.0251V29.8327C23.5001 29.1126 23.1294 28.1951 21.5584 28.1951C20.9396 28.1951 20.4382 28.3337 20.0994 28.4724V29.6673C20.4862 29.422 20.9156 29.2913 21.385 29.2913C21.8091 29.2913 22.2305 29.438 22.2305 29.9394V29.9714C22.0225 29.8967 21.7584 29.846 21.4837 29.846C20.4115 29.846 19.6247 30.4115 19.6247 31.5184C19.6247 32.6092 20.5102 33.02 21.217 33.02C21.6597 33.02 22.0411 32.8759 22.2892 32.6759C22.3132 32.8146 22.3479 32.932 22.3906 32.9906H23.7881C23.6201 32.8546 23.5001 32.5799 23.5001 32.0251ZM20.8996 31.377C20.8996 31.0036 21.217 30.7529 21.6704 30.7529C21.9025 30.7529 22.0865 30.8062 22.2305 30.8836V31.6864C22.1025 31.8037 21.8811 31.9398 21.5584 31.9398C21.137 31.9398 20.8996 31.6997 20.8996 31.377ZM51.0947 32.0251V29.8327C51.0947 29.1126 50.7266 28.1951 49.153 28.1951C48.5342 28.1951 48.0328 28.3337 47.694 28.4724V29.6673C48.0834 29.422 48.5129 29.2913 48.9823 29.2913C49.4037 29.2913 49.8278 29.438 49.8278 29.9394V29.9714C49.6171 29.8967 49.353 29.846 49.0783 29.846C48.0088 29.846 47.2219 30.4115 47.2219 31.5184C47.2219 32.6092 48.1048 33.02 48.8116 33.02C49.257 33.02 49.6357 32.8759 49.8838 32.6759C49.9078 32.8146 49.9451 32.932 49.9851 32.9906H51.3827C51.2174 32.8546 51.0947 32.5799 51.0947 32.0251ZM48.4969 31.377C48.4969 31.0036 48.8116 30.7529 49.265 30.7529C49.497 30.7529 49.6837 30.8062 49.8278 30.8836V31.6864C49.6971 31.8037 49.4784 31.9398 49.153 31.9398C48.7342 31.9398 48.4969 31.6997 48.4969 31.377ZM29.1412 28.2431C28.5891 28.2431 28.1863 28.3764 27.8076 28.7818C27.5409 28.4431 27.1195 28.2431 26.61 28.2431C26.1939 28.2431 25.8045 28.3658 25.4498 28.6778V28.2884H24.2629V32.9906H25.5378V29.822C25.6925 29.63 25.9112 29.47 26.2126 29.47C26.5967 29.47 26.8154 29.734 26.8154 30.2141V32.9906H28.117V29.7874C28.2637 29.6007 28.477 29.47 28.7784 29.47C29.1945 29.47 29.3839 29.766 29.3839 30.2141V32.9906H30.6855V29.734C30.6855 28.8512 30.1227 28.2431 29.1412 28.2431ZM33.6807 32.9906H34.9556V26.256H33.6807V32.9906ZM43.5733 28.3497L41.8849 26.256H40.4873V32.9906H41.8849V28.3497L43.5733 30.6008L45.2616 28.3497V32.9906H46.6592V26.256H45.2616L43.5733 28.3497ZM31.5256 32.9906H32.8032V28.2884H31.5256V32.9906ZM32.1657 26.1547C31.707 26.1547 31.3363 26.5281 31.3363 26.9895C31.3363 27.4482 31.707 27.8243 32.1657 27.8243C32.6218 27.8243 32.9926 27.4482 32.9926 26.9895C32.9926 26.5281 32.6218 26.1547 32.1657 26.1547ZM53.0231 28.7818V28.2884H51.8015V32.9906H53.0791V30.0354C53.2631 29.798 53.5618 29.582 53.9966 29.582C54.33 29.582 54.5753 29.7153 54.714 29.8167V28.4031C54.5567 28.2884 54.3033 28.2324 54.0926 28.2324C53.7299 28.2324 53.3324 28.3711 53.0231 28.7818ZM57.4559 31.7904C57.0505 31.7904 56.8958 31.473 56.8958 31.1236V29.5206H57.984V28.2884H56.8958V26.5147L55.6369 27.0535V28.2884H54.9488V29.5206H55.6369V31.313C55.6369 32.2892 56.0236 33.0413 57.1652 33.0413C57.5039 33.0413 57.8026 32.9906 58 32.9106V31.609C57.9066 31.7184 57.7306 31.7904 57.4559 31.7904ZM36.4972 34.2095H37.9322L40.0846 28.2884H38.687L37.7988 30.8276L36.836 28.2884H35.3797L37.1374 32.5505L36.4972 34.2095Z" fill="#008CD6"/>
</svg>
