<svg width="24" height="24" viewBox="0 0 24 24" fill="none" xmlns="http://www.w3.org/2000/svg">
<path d="M21.5745 3.19199C21.0106 2.61851 20.2492 2.2818 19.4456 2.25058C18.6419 2.21936 17.8566 2.49598 17.25 3.02399C16.6434 2.49598 15.8581 2.21936 15.0544 2.25058C14.2508 2.2818 13.4894 2.61851 12.9255 3.19199C12.3327 3.79751 12.0008 4.61114 12.0008 5.45849C12.0008 6.30585 12.3327 7.11948 12.9255 7.72499L17.2485 12.105L17.25 12.1035L17.2515 12.1042L21.5745 7.72499C22.1673 7.11948 22.4992 6.30585 22.4992 5.45849C22.4992 4.61114 22.1673 3.79751 21.5745 3.19199ZM20.5065 6.67125L17.2515 9.96899L17.25 9.96749L17.2485 9.96899L13.9935 6.67125C13.6761 6.34739 13.4983 5.91198 13.4983 5.45849C13.4983 5.00501 13.6761 4.5696 13.9935 4.24574C14.3104 3.93768 14.735 3.76534 15.177 3.76534C15.619 3.76534 16.0436 3.93768 16.3605 4.24574L17.2462 5.15099L17.25 5.14724L17.2537 5.15099L18.1387 4.24574C18.4557 3.93746 18.8805 3.76497 19.3226 3.76497C19.7648 3.76497 20.1895 3.93746 20.5065 4.24574C20.8239 4.5696 21.0017 5.00501 21.0017 5.45849C21.0017 5.91198 20.8239 6.34739 20.5065 6.67125ZM12 22.5H10.5V18.75C10.4994 18.1534 10.2622 17.5815 9.84033 17.1597C9.4185 16.7378 8.84655 16.5006 8.25 16.5H5.25C4.65345 16.5006 4.0815 16.7378 3.65967 17.1597C3.23784 17.5815 3.0006 18.1534 3 18.75V22.5H1.5V18.75C1.50119 17.7558 1.89666 16.8027 2.59966 16.0997C3.30267 15.3967 4.2558 15.0012 5.25 15H8.25C9.2442 15.0012 10.1973 15.3967 10.9003 16.0997C11.6033 16.8027 11.9988 17.7558 12 18.75V22.5ZM6.75 7.49999C7.19501 7.49999 7.63002 7.63196 8.00003 7.87919C8.37004 8.12642 8.65843 8.47782 8.82873 8.88896C8.99903 9.30009 9.04358 9.75249 8.95677 10.1889C8.86995 10.6254 8.65566 11.0263 8.34099 11.341C8.02632 11.6557 7.62541 11.8699 7.18895 11.9568C6.7525 12.0436 6.3001 11.999 5.88896 11.8287C5.47783 11.6584 5.12643 11.37 4.87919 11C4.63196 10.63 4.5 10.195 4.5 9.74999C4.5 9.15326 4.73705 8.58096 5.15901 8.159C5.58097 7.73705 6.15326 7.49999 6.75 7.49999ZM6.75 5.99999C6.00832 5.99999 5.2833 6.21993 4.66661 6.63198C4.04993 7.04404 3.56928 7.62971 3.28545 8.31493C3.00162 9.00015 2.92736 9.75415 3.07206 10.4816C3.21675 11.209 3.5739 11.8772 4.09835 12.4016C4.6228 12.9261 5.29098 13.2832 6.01841 13.4279C6.74584 13.5726 7.49984 13.4984 8.18506 13.2145C8.87029 12.9307 9.45596 12.4501 9.86801 11.8334C10.2801 11.2167 10.5 10.4917 10.5 9.74999C10.5 9.25754 10.403 8.7699 10.2145 8.31493C10.0261 7.85996 9.74987 7.44656 9.40165 7.09834C9.05343 6.75012 8.64003 6.4739 8.18506 6.28545C7.73009 6.09699 7.24246 5.99999 6.75 5.99999Z" fill="#7D848D"/>
</svg>
