<svg width="21" height="20" viewBox="0 0 21 20" fill="none" xmlns="http://www.w3.org/2000/svg">
<path d="M3.30119 6.98788V6.97681C3.30117 5.88398 3.62483 4.81562 4.23133 3.90653C4.83782 2.99743 5.69999 2.28834 6.70904 1.8687C7.7181 1.44906 8.82883 1.33768 9.90112 1.54861C10.9734 1.75954 11.9592 2.28333 12.7341 3.0539C13.3438 2.75297 14.0249 2.62644 14.702 2.6883C15.3791 2.75016 16.0259 2.99799 16.571 3.40443C17.1161 3.81086 17.5382 4.36007 17.7908 4.99137C18.0433 5.62267 18.1164 6.31149 18.002 6.98173C18.1702 6.99734 18.3334 7.04746 18.4814 7.12896C18.6294 7.21045 18.759 7.32157 18.8621 7.45539C18.9652 7.5892 19.0397 7.74284 19.0808 7.9067C19.1219 8.07057 19.1288 8.24115 19.101 8.4078C18.5453 11.7504 17.1709 13.8662 14.9802 14.7563V15.5824C14.9802 16.0715 14.7859 16.5405 14.4401 16.8863C14.0942 17.2322 13.6252 17.4264 13.1361 17.4264H8.21866C7.72958 17.4264 7.26054 17.2322 6.91472 16.8863C6.56889 16.5405 6.37461 16.0715 6.37461 15.5824V14.7563C4.18387 13.8662 2.80944 11.7504 2.25377 8.4078C2.22695 8.24558 2.23295 8.07962 2.2714 7.91976C2.30986 7.7599 2.37999 7.60937 2.47765 7.47709C2.57531 7.34481 2.69852 7.23347 2.83997 7.14965C2.98143 7.06583 3.13826 7.01124 3.30119 6.98911V6.98788ZM4.53056 6.97681H5.75992C5.75992 6.16169 6.08373 5.37996 6.66011 4.80358C7.23648 4.2272 8.01822 3.9034 8.83334 3.9034C9.64846 3.9034 10.4302 4.2272 11.0066 4.80358C11.583 5.37996 11.9068 6.16169 11.9068 6.97681H13.1361C13.1361 5.83565 12.6828 4.74121 11.8759 3.93429C11.0689 3.12736 9.97451 2.67403 8.83334 2.67403C7.69217 2.67403 6.59774 3.12736 5.79081 3.93429C4.98388 4.74121 4.53056 5.83565 4.53056 6.97681ZM6.98929 6.97681H10.6774C10.6774 6.48774 10.4831 6.0187 10.1373 5.67287C9.79146 5.32705 9.32241 5.13276 8.83334 5.13276C8.34427 5.13276 7.87523 5.32705 7.5294 5.67287C7.18357 6.0187 6.98929 6.48774 6.98929 6.97681ZM15.4301 6.97681H16.7468C16.8396 6.6135 16.8482 6.2338 16.7721 5.86664C16.6959 5.49947 16.5369 5.15454 16.3073 4.85812C16.0776 4.5617 15.7833 4.32162 15.4468 4.15617C15.1103 3.99072 14.7405 3.90427 14.3655 3.9034C14.0704 3.9034 13.7901 3.95503 13.5295 4.04969C13.7471 4.39883 13.9266 4.77502 14.0643 5.16965C14.2985 5.11157 14.5445 5.12353 14.7719 5.20404C14.9993 5.28454 15.1981 5.43006 15.3436 5.62252C15.489 5.81498 15.5748 6.04592 15.5902 6.28667C15.6055 6.52743 15.5499 6.7674 15.4301 6.97681ZM13.7508 14.9677H7.60397V15.5824C7.60397 15.7454 7.66874 15.9018 7.78401 16.017C7.89929 16.1323 8.05563 16.1971 8.21866 16.1971H13.1361C13.2992 16.1971 13.4555 16.1323 13.5708 16.017C13.686 15.9018 13.7508 15.7454 13.7508 15.5824V14.9677ZM7.17124 13.7383H14.1835C16.1333 13.1114 17.3676 11.3386 17.8889 8.20618H3.46592C3.98717 11.3386 5.22146 13.1114 7.17124 13.7383Z" fill="black"/>
</svg>
