<svg width="30" height="30" viewBox="0 0 30 30" fill="none" xmlns="http://www.w3.org/2000/svg">
<g clip-path="url(#clip0_386_160)">
<path d="M15 30C23.2843 30 30 23.2843 30 15C30 6.71573 23.2843 0 15 0C6.71573 0 0 6.71573 0 15C0 23.2843 6.71573 30 15 30Z" fill="#FAE300"/>
<path d="M15 9.414C10.92 9.414 7.62005 12.036 7.62305 15.261C7.62305 17.361 9.03005 19.197 11.133 20.223C10.977 20.799 10.575 22.323 10.494 22.623C10.395 23.025 10.641 23.019 10.794 22.923C10.947 22.827 12.816 21.546 13.635 20.988C14.0878 21.0561 14.5452 21.0892 15.003 21.087C19.083 21.087 22.383 18.465 22.38 15.243C22.377 12.021 19.071 9.411 15 9.414Z" fill="#391B1B"/>
</g>
<defs>
<clipPath id="clip0_386_160">
<rect width="30" height="30" fill="white"/>
</clipPath>
</defs>
</svg>
