<svg width="60" height="60" viewBox="0 0 60 60" fill="none" xmlns="http://www.w3.org/2000/svg">
<path d="M8.84783 13.1367L8.61069 13.25L13.6032 30.2842C13.5424 30.4647 8 47.0561 8 47.0561L8.15739 47.1904C10.47 49.161 17.9977 50.9049 26.0562 51.3414C31.8147 51.6541 42.6434 51.5618 50.4544 47.4359L50.6852 47.3142C50.6852 47.3142 45.21 30.4857 45.147 30.2926C45.2142 30.0995 51 13.3717 51 13.3717L50.7671 13.2479C44.0474 9.6866 24.2242 5.85669 8.84783 13.1367Z" fill="#006CB8"/>
<path d="M33.3126 9.76425C40.7437 10.2868 47.094 12.0832 50.2377 13.6739L44.4918 30.2863C44.4918 30.2863 49.7718 46.5147 49.9313 47.0057C42.2694 50.9427 31.7282 51.0308 26.0893 50.7265C18.3224 50.3047 11.1117 48.6825 8.72559 46.8441C8.86199 46.4328 14.2533 30.2947 14.2533 30.2947C14.2533 30.2947 9.50206 14.0852 9.35516 13.5879C17.8502 9.63834 27.0588 9.32355 33.3126 9.76425Z" fill="white"/>
<path d="M10.8376 14.2909C25.2443 7.96573 42.5409 11.5648 48.7317 14.3874L43.2334 30.2926L48.3393 46.395C35.7058 52.1011 15.0935 49.3225 10.3633 46.204L15.4377 30.2926L10.8376 14.2909Z" fill="#006CB8"/>
<path d="M29.519 19.145C28.2536 19.145 26.8706 19.2688 25.5296 19.615C24.5978 19.9235 24.5978 20.1796 24.8559 21.0043C25.1162 21.8269 25.3743 22.5216 25.5296 22.9329C25.6849 23.3442 25.3995 23.4471 25.0364 23.6527C24.6755 23.8584 24.7489 24.0053 24.9609 24.4775C25.0259 24.6202 25.1036 24.7587 25.1938 24.8888C25.3995 25.1448 25.5464 25.2015 25.8402 24.9392C26.3585 24.4775 26.6943 24.7587 25.9955 25.3001C24.4635 26.4837 23.8717 28.8236 23.8717 30.8278V39.7803C23.8717 40.5526 24.0795 40.9115 24.9609 41.1171C26.7216 41.5285 31.7351 41.8579 33.9701 41.1171C35.0593 40.7562 35.1096 40.4477 35.1621 39.7803V30.8802C35.1621 28.874 35.032 26.8174 33.0131 25.4281C32.5997 24.9392 32.6501 24.6307 33.2713 25.0923C33.7896 25.4533 34.0226 24.8615 34.1275 24.6558C34.2261 24.4544 34.3122 24.2487 34.3856 24.0389C34.4381 23.8836 34.1779 23.6275 33.8673 23.4722C33.5567 23.319 33.8148 23.0106 33.9701 22.7021C34.1275 22.3915 34.4884 21.466 34.6962 21.0043C34.904 20.5405 35.267 20.0767 34.1275 19.7179C33.414 19.4933 31.6302 19.1471 29.519 19.145ZM29.7435 19.7074C30.9796 19.7095 32.4255 19.8648 33.9701 20.3349C34.2555 20.4902 34.2051 20.5405 34.1002 20.7986C33.9974 21.0547 33.0656 23.1113 32.9103 23.5247C32.755 23.936 32.392 24.1417 32.392 23.6254C32.392 23.2666 32.2367 23.4471 32.0541 23.1113C31.9555 22.9308 31.9513 22.0074 32.1317 21.7493C32.3143 21.4912 32.3647 21.3128 31.8484 21.3128H27.4981C27.0574 21.3128 26.9272 21.3904 27.135 21.8018C27.3428 22.2131 27.3155 22.9056 27.2651 23.1637C27.0574 23.4974 27.0049 23.4974 26.9545 23.7807C26.9021 24.064 26.6439 24.1417 26.4614 23.6254L26.2032 22.8301C26.2032 22.8301 25.8654 21.9801 25.6324 21.21C25.3995 20.4377 25.1413 20.3097 26.0207 20.1292C26.5831 20.0159 27.9388 19.7011 29.7435 19.7074ZM27.5757 24.2445H31.7435C31.8442 24.2445 31.9261 24.3243 31.9261 24.425C31.9261 24.5236 31.8442 24.6055 31.7435 24.6055H27.5757C27.475 24.6034 27.3952 24.5236 27.3931 24.425C27.3952 24.3243 27.475 24.2445 27.5757 24.2445ZM14.0545 42.4833C14.0545 42.4833 14.0272 42.5799 14.2014 41.9356C14.4302 41.1024 14.7429 41.1759 15.3179 41.3291C15.8929 41.4823 17.1667 41.8202 17.6851 41.9587C18.2034 42.0972 18.3608 42.3805 18.195 42.9954C18.195 42.9954 18.0481 43.5368 18.0271 43.6208C18.0041 43.7026 17.9768 43.7551 17.8635 43.7257C17.7522 43.6942 17.5781 43.648 17.4752 43.6208C17.3724 43.5935 17.2842 43.5704 17.3157 43.4613C17.3451 43.35 17.3871 43.1926 17.4249 43.0562C17.4626 42.9156 17.5151 42.882 17.322 42.8296C17.1248 42.7771 15.2129 42.2693 15.0744 42.2315C14.9359 42.1937 14.873 42.2483 14.852 42.3301C14.8289 42.4141 14.7051 42.8737 14.6631 43.031C14.619 43.1863 14.7114 43.2325 14.8226 43.2619C14.9338 43.2913 16.7428 43.7718 17.1982 43.8936C17.6515 44.0153 17.8341 44.3385 17.7438 44.67C17.6557 45.0016 17.4605 45.7193 17.3346 46.1915C17.2066 46.6595 16.8247 46.7665 16.4553 46.6679C16.0839 46.5672 14.2245 46.074 13.7691 45.9523C13.3137 45.8327 13.2256 45.5703 13.32 45.2199C13.4166 44.8694 13.5635 44.3175 13.6012 44.179C13.639 44.0426 13.7041 44.0594 13.7691 44.0761C13.8342 44.0929 14.0944 44.1622 14.2056 44.1916C14.3168 44.223 14.3294 44.265 14.3022 44.3657C14.2728 44.4665 14.1825 44.8065 14.1427 44.9555C14.1028 45.1045 14.2119 45.1024 14.2854 45.1233C14.3588 45.1422 16.0964 45.6039 16.3798 45.6795C16.6631 45.755 16.7113 45.6984 16.7638 45.5053C16.8142 45.3122 16.9443 44.8337 16.9695 44.7414C16.9925 44.6491 17.0114 44.5924 16.831 44.5441C16.7302 44.5168 15.1857 44.1055 14.5729 43.9418C13.9622 43.7802 13.7712 43.5347 13.874 43.1465C13.979 42.7603 14.0545 42.4833 14.0545 42.4833ZM20.7511 46.5693L21.3072 43.6208H21.3093L22.2936 43.8033H22.2915L22.1614 44.4917C22.1509 44.5504 22.1886 44.605 22.2474 44.6176L22.7511 44.7099C22.8098 44.7225 22.8665 44.6826 22.8791 44.6239L23.1624 43.1255C23.1729 43.0667 23.133 43.0101 23.0742 42.9996L22.7511 42.9387L19.4458 42.3238L19.131 42.2651C19.1037 42.2588 19.0743 42.2651 19.0513 42.2819C19.0261 42.2986 19.0114 42.3217 19.0051 42.3511L18.7218 43.8495C18.7176 43.8789 18.7239 43.9083 18.7386 43.9313C18.7554 43.9544 18.7805 43.9712 18.8099 43.9775L19.3115 44.0698C19.3702 44.0824 19.4269 44.0426 19.4395 43.9838L19.5696 43.2976L20.5874 43.4864H20.5895L20.0334 46.435V46.4287L19.4143 46.3153C19.387 46.309 19.3577 46.3153 19.3325 46.3321C19.3094 46.3468 19.2926 46.372 19.2884 46.4014L19.1541 47.1065C19.1436 47.1653 19.1814 47.2219 19.2422 47.2324L21.1981 47.5976C21.2569 47.6081 21.3135 47.5703 21.324 47.5115L21.4583 46.8043C21.4688 46.7455 21.429 46.6889 21.3702 46.6784L20.7511 46.563V46.5693ZM24.4509 45.7781L25.6156 45.8369V45.839L25.0889 44.7813L24.4509 45.7844V45.7781ZM27.6156 47.1695C27.6764 47.1716 27.7226 47.2219 27.7205 47.2828L27.6827 47.9984C27.6806 48.0593 27.6282 48.1054 27.5694 48.1012L25.5821 48.0026C25.5527 48.0026 25.5254 47.99 25.5065 47.9669C25.4855 47.9459 25.4771 47.9187 25.4771 47.8893L25.5128 47.1737C25.5149 47.1443 25.5275 47.117 25.5485 47.0981C25.5695 47.0792 25.5988 47.0687 25.6282 47.0687L26.2284 47.0981L25.9766 46.5861L25.9787 46.5819L23.9997 46.4832V46.4874L23.6849 46.9743L24.3355 47.0058C24.3964 47.0079 24.4425 47.0582 24.4404 47.1191L24.4047 47.8368C24.4026 47.8662 24.3901 47.8935 24.3691 47.9124C24.346 47.9312 24.3187 47.9417 24.2893 47.9396L22.302 47.8389C22.2411 47.8368 22.1949 47.7864 22.197 47.7277L22.2348 47.01C22.2369 46.9806 22.2495 46.9533 22.2705 46.9344C22.2915 46.9155 22.3209 46.905 22.3481 46.9071L22.8539 46.9323L24.7174 44.0279L24.1865 44.0006C24.1571 43.9985 24.1298 43.9859 24.1109 43.9649C24.0921 43.9439 24.0816 43.9167 24.0837 43.8873L24.1193 43.1696C24.1235 43.1108 24.1739 43.0646 24.2348 43.0667L26.2221 43.1654C26.2515 43.1675 26.2788 43.18 26.2977 43.201C26.3166 43.222 26.3271 43.2514 26.325 43.2787L26.2893 43.9964C26.2872 44.0258 26.2746 44.0531 26.2536 44.0719C26.2326 44.0908 26.2032 44.1013 26.1739 44.0992L25.5485 44.0677L25.5506 44.0636L27.0574 47.1401L27.6156 47.1695ZM30.0122 47.1569V44.1559H31.0153H31.0132V44.8568C31.0132 44.9156 31.0615 44.9638 31.1223 44.9638H31.6323C31.6617 44.9638 31.6889 44.9534 31.7099 44.9324C31.7309 44.9114 31.7414 44.8841 31.7414 44.8568V43.329C31.7414 43.3018 31.7309 43.2745 31.7099 43.2535C31.6889 43.2325 31.6617 43.222 31.6323 43.222H27.6219C27.5631 43.222 27.5128 43.2703 27.5128 43.329V44.8568C27.5128 44.9156 27.5631 44.9638 27.6219 44.9638H28.1339C28.1633 44.9638 28.1906 44.9534 28.2116 44.9324C28.2305 44.9114 28.2431 44.8841 28.2431 44.8568V44.1559H29.2819V47.1569V47.1506H28.6523C28.5914 47.1506 28.5432 47.1988 28.5432 47.2597V47.9774C28.5432 48.0362 28.5914 48.0844 28.6523 48.0865H30.6417C30.7026 48.0844 30.7509 48.0362 30.7509 47.9774V47.2597C30.7509 47.1988 30.7026 47.1506 30.6417 47.1506H30.0122V47.1569ZM34.1086 47.0603L34.734 47.0205C34.7948 47.0163 34.8452 47.0624 34.8494 47.1212L34.8956 47.8389C34.8998 47.8977 34.8557 47.9501 34.7948 47.9543L32.8096 48.0802C32.7802 48.0823 32.7508 48.0739 32.7298 48.0551C32.7088 48.0362 32.6942 48.0089 32.6921 47.9795L32.6459 47.2639C32.6417 47.203 32.6879 47.1527 32.7466 47.1485L33.3741 47.1086H33.3783L33.181 44.1202L32.5347 44.1601C32.5053 44.1622 32.4759 44.1538 32.4549 44.1349C32.4339 44.116 32.4192 44.0887 32.4192 44.0594L32.371 43.3437C32.3689 43.285 32.4129 43.2325 32.4717 43.2283L34.4591 43.1024C34.4884 43.1003 34.5157 43.1087 34.5388 43.1276C34.5598 43.1465 34.5724 43.1738 34.5745 43.2031L34.6207 43.9188C34.6228 43.9481 34.6144 43.9754 34.5955 43.9964C34.5766 44.0195 34.5493 44.0321 34.5199 44.0342L33.9134 44.074H33.9092L34.1044 47.0603H34.1086ZM43.4977 42.4518L43.9845 44.5043L43.9866 44.5022L41.2879 42.966L41.2942 42.9681L41.7789 42.8548C41.8083 42.8464 41.8314 42.8296 41.8461 42.8044C41.8629 42.7813 41.8671 42.7519 41.8608 42.7226L41.695 42.0237C41.6803 41.9671 41.6215 41.9293 41.5628 41.944L39.6258 42.3973C39.5985 42.4036 39.5733 42.4225 39.5586 42.4455C39.5439 42.4707 39.5376 42.5001 39.546 42.5274L39.7118 43.2262C39.7181 43.2556 39.7349 43.2787 39.7601 43.2955C39.7832 43.3102 39.8147 43.3144 39.8419 43.3081L40.4337 43.1696L41.1242 46.0824H41.1263L40.5345 46.2209C40.5072 46.2272 40.482 46.2461 40.4673 46.2692C40.4526 46.2943 40.4463 46.3237 40.4547 46.351L40.6184 47.0498C40.6331 47.1086 40.6919 47.1443 40.7506 47.1296L42.6876 46.6763C42.7464 46.6637 42.7821 46.6049 42.7695 46.5462L42.6016 45.8473C42.5953 45.8201 42.5785 45.7949 42.5533 45.7802C42.5281 45.7655 42.4987 45.7613 42.4715 45.7676L41.8335 45.9166H41.8356L41.3382 43.8285L44.0832 45.3899L43.5816 45.5074C43.5543 45.5137 43.5291 45.5326 43.5145 45.5556C43.4977 45.5808 43.4935 45.6102 43.4998 45.6396L43.6656 46.3363C43.6802 46.3951 43.739 46.4308 43.7957 46.4182L45.7348 45.9628C45.7935 45.9502 45.8292 45.8914 45.8166 45.8348L45.6487 45.1338C45.634 45.0751 45.5774 45.0394 45.5186 45.0541L44.8995 45.1989L44.207 42.2861V42.284L44.8261 42.1392C44.8534 42.1329 44.8785 42.1161 44.8932 42.0909C44.9079 42.0678 44.9121 42.0384 44.9058 42.0111L44.7421 41.3102C44.7274 41.2535 44.6687 41.2158 44.6099 41.2305L42.6729 41.6838C42.6142 41.6984 42.5785 41.7572 42.5911 41.8139L42.759 42.5127C42.7716 42.5715 42.8303 42.6071 42.8891 42.5945L43.4977 42.4518ZM31.5106 13.6194C31.5106 13.6194 31.5001 13.7159 31.5735 13.0549C31.6721 12.2007 31.9911 12.2259 32.5808 12.291C33.1705 12.3539 34.2996 12.4778 34.8326 12.5344C35.3657 12.5932 35.5629 12.8492 35.4937 13.4809C35.4937 13.4809 35.4328 14.037 35.4223 14.123C35.4139 14.207 35.3929 14.2616 35.2796 14.249C35.1642 14.2364 34.9837 14.2154 34.8788 14.2049C34.7739 14.1944 34.6836 14.1839 34.6962 14.0706C34.7088 13.9573 34.7256 13.7957 34.7424 13.6551C34.7571 13.5124 34.8053 13.4704 34.606 13.4494C34.4066 13.4263 32.6207 13.2332 32.478 13.2165C32.3353 13.2018 32.2807 13.2626 32.2723 13.3487C32.2639 13.4326 32.2115 13.9048 32.1926 14.0664C32.1758 14.2259 32.2723 14.2553 32.3878 14.2678C32.5011 14.2804 34.1821 14.4651 34.6479 14.5155C35.1138 14.5658 35.3405 14.8596 35.3048 15.1996C35.267 15.5396 35.1852 16.2762 35.1327 16.7589C35.0781 17.2415 34.7193 17.4031 34.3373 17.3612C33.9575 17.3192 32.2262 17.1303 31.7582 17.08C31.2923 17.0275 31.1664 16.784 31.2042 16.4252C31.2461 16.0663 31.307 15.4997 31.3238 15.357C31.3385 15.2164 31.4056 15.2227 31.4728 15.2311C31.5399 15.2374 31.8044 15.2668 31.9198 15.2794C32.0331 15.292 32.052 15.3318 32.0415 15.4347C32.0289 15.5396 31.9911 15.888 31.9743 16.0412C31.9576 16.1922 32.0646 16.1755 32.1401 16.1839C32.2178 16.1922 33.8232 16.3664 34.1128 16.4C34.4024 16.4294 34.4423 16.3685 34.4633 16.1692C34.4863 15.9719 34.5409 15.4787 34.5514 15.3843C34.5619 15.2899 34.5682 15.2311 34.3856 15.2101C34.2807 15.1996 32.8725 15.0464 32.2451 14.9772C31.6176 14.91 31.3909 14.696 31.435 14.2993C31.4791 13.9006 31.5106 13.6194 31.5106 13.6194ZM36.5262 16.5616C36.4947 16.7022 36.5493 16.7421 36.6899 16.7715C36.8305 16.8029 38.6436 17.1954 38.7381 17.2164C38.8325 17.2373 38.9207 17.2541 38.9563 17.0967C38.9899 16.9393 39.5041 14.5994 39.5292 14.4861C39.5523 14.3749 39.5188 14.3287 39.3781 14.2993C39.2375 14.2678 37.395 13.8691 37.3383 13.8565C37.2271 13.8334 37.118 13.8586 37.0802 14.0349C37.0403 14.2112 36.7906 15.3549 36.7906 15.3549C36.7906 15.3549 36.5556 16.4231 36.5262 16.5616ZM36.0414 15.3759C36.0414 15.3759 36.289 14.2448 36.4317 13.5963C36.5744 12.9457 36.9018 12.8093 37.3908 12.9143C37.8756 13.0192 39.2291 13.313 39.7139 13.4179C40.2323 13.5291 40.4107 13.8607 40.2868 14.4294C40.1609 14.9961 39.7391 16.9184 39.6048 17.5311C39.4705 18.1439 39.1725 18.2636 38.6478 18.1502C38.1232 18.0369 36.8305 17.7578 36.2974 17.6403C35.7644 17.5249 35.6406 17.1996 35.7287 16.7987C35.8169 16.4 36.0414 15.3759 36.0414 15.3759ZM18.1195 18.465C18.1363 18.5217 18.1027 18.5825 18.0439 18.5993L16.1951 19.1156L14.384 19.6234C14.3273 19.6381 14.2665 19.6045 14.2497 19.5479L14.0545 18.8596C14.0377 18.8008 14.0713 18.742 14.1301 18.7252L14.7345 18.5553L13.9202 15.6823L13.2948 15.8586C13.2676 15.8649 13.2382 15.8607 13.213 15.8481C13.1878 15.8334 13.1689 15.8103 13.1626 15.7809L12.9654 15.0926C12.9507 15.0359 12.9842 14.9772 13.0409 14.9604L14.9506 14.4252C14.98 14.4168 15.0094 14.421 15.0346 14.4357C15.0597 14.4483 15.0786 14.4735 15.0849 14.5008L15.2801 15.1891C15.2969 15.2479 15.2633 15.3066 15.2066 15.3234L14.619 15.4871L15.4354 18.3601L15.9495 18.2174L17.1898 17.869L16.9674 17.0862C16.9506 17.0275 16.9842 16.9687 17.0429 16.9519L17.5382 16.8134C17.5969 16.7987 17.6557 16.8302 17.6725 16.889L18.1195 18.465ZM20.728 14.782L20.3839 15.8712H20.3881L21.4877 15.6361L21.4856 15.6403L20.728 14.782ZM23.2232 16.5196V16.5175L23.7626 16.4021C23.8213 16.3895 23.878 16.4273 23.8906 16.484L24.0438 17.1849C24.0501 17.2122 24.0438 17.2415 24.0291 17.2667C24.0123 17.2898 23.9892 17.3066 23.9598 17.3129L22.0208 17.7305C21.962 17.741 21.9053 17.7053 21.8906 17.6466L21.7395 16.9477C21.727 16.889 21.7647 16.8323 21.8214 16.8176L22.409 16.6938H22.4111L22.0291 16.2594V16.2573L20.132 16.6665L20.1341 16.6644L19.9578 17.2164L19.962 17.2185L20.5622 17.0883C20.621 17.0779 20.6777 17.1135 20.6903 17.1723L20.8434 17.8711C20.8497 17.9005 20.8455 17.9299 20.8288 17.953C20.8141 17.9781 20.7889 17.9949 20.7595 18.0012L18.8225 18.4167C18.7931 18.423 18.7638 18.4167 18.7386 18.4021C18.7155 18.3853 18.6987 18.3622 18.6924 18.3328L18.5392 17.634C18.5266 17.5752 18.5644 17.5186 18.6231 17.506L19.1436 17.3947L19.1415 17.3926L20.174 14.1188L19.6347 14.2343C19.6074 14.2406 19.578 14.2343 19.5528 14.2196C19.5297 14.2049 19.5129 14.1797 19.5066 14.1503L19.3535 13.4515C19.3409 13.3927 19.3765 13.3361 19.4353 13.3235L21.3765 12.908C21.4352 12.8933 21.4919 12.931 21.5066 12.9898L21.6577 13.6886C21.6703 13.7474 21.6325 13.8041 21.5759 13.8187L20.9652 13.9489L23.2232 16.5196ZM29.5484 13.0549L28.9545 13.036C28.8936 13.0339 28.8475 12.9835 28.8495 12.9248L28.8726 12.2091C28.8747 12.1798 28.8873 12.1525 28.9083 12.1336C28.9293 12.1126 28.9566 12.1021 28.986 12.1042L30.9691 12.1693C31.0279 12.1714 31.0761 12.2217 31.074 12.2826L31.0489 12.9982C31.0489 13.0255 31.0363 13.0528 31.0153 13.0738C30.9943 13.0926 30.9649 13.1031 30.9376 13.101L30.3563 13.0821L29.0909 16.0705L29.647 16.0391C29.7079 16.0349 29.7582 16.081 29.7624 16.1398L29.8044 16.8554C29.8086 16.9142 29.7624 16.9645 29.7037 16.9687L27.7226 17.0841C27.6932 17.0862 27.6638 17.0758 27.6429 17.0569C27.6219 17.038 27.6093 17.0128 27.6072 16.9834L27.5652 16.2678C27.5631 16.2405 27.5736 16.2111 27.5925 16.1902C27.6114 16.1692 27.6387 16.1566 27.6659 16.1545L28.2556 16.1188L27.0427 14.0055L26.0962 16.2468L26.6481 16.2132C26.6775 16.2111 26.7048 16.2216 26.7258 16.2405C26.7489 16.2594 26.7615 16.2867 26.7615 16.3161L26.8034 17.0296C26.8055 17.059 26.7971 17.0862 26.7761 17.1093C26.7573 17.1303 26.73 17.1429 26.7027 17.145L24.7216 17.2604C24.6608 17.2625 24.6104 17.2185 24.6062 17.1597L24.5642 16.4441C24.56 16.3832 24.6062 16.3329 24.665 16.3287L25.2736 16.2951L23.6136 13.5124L23.026 13.6005C22.9987 13.6047 22.9693 13.5963 22.9462 13.5795C22.921 13.5627 22.9064 13.5375 22.9022 13.5082L22.7951 12.8009C22.7867 12.7422 22.8266 12.6876 22.8854 12.6792L24.8496 12.3854C24.879 12.3812 24.9084 12.3896 24.9315 12.4064C24.9546 12.4232 24.9693 12.4484 24.9735 12.4778L25.0805 13.1829C25.0889 13.2437 25.0469 13.2983 24.9882 13.3067L24.4194 13.3927L25.6345 15.4556L26.5747 13.1241L25.9997 13.1577C25.9703 13.1598 25.943 13.1493 25.9199 13.1304C25.8989 13.1115 25.8863 13.0842 25.8863 13.057L25.8423 12.3413C25.8381 12.2826 25.8842 12.2322 25.9451 12.228L27.9262 12.1126C27.9849 12.1084 28.0374 12.1546 28.0395 12.2133L28.0836 12.9289C28.0857 12.9877 28.0416 13.0381 27.9807 13.0423L27.4057 13.0759L28.625 15.3024L29.5484 13.0549ZM41.8587 14.8953L41.2879 14.7044C41.2606 14.6939 41.2375 14.675 41.2249 14.6498C41.2123 14.6246 41.2102 14.5952 41.2186 14.5679L41.4495 13.888C41.4683 13.8313 41.5292 13.802 41.5859 13.8208L43.4662 14.4504C43.4935 14.4588 43.5166 14.4777 43.5291 14.5029C43.5438 14.5281 43.5438 14.5596 43.5354 14.5868L43.3046 15.2647C43.2857 15.3213 43.2249 15.3528 43.1682 15.3339L42.6939 15.1744V15.1765L44.1587 17.8795H44.1608L44.8366 15.8901L44.2448 15.6928C44.2175 15.6844 44.1944 15.6634 44.1818 15.6382C44.1692 15.613 44.1671 15.5837 44.1755 15.5564L44.4064 14.8764C44.4252 14.8219 44.4861 14.7904 44.5449 14.8093L46.4252 15.4389C46.4819 15.4577 46.5133 15.5186 46.4924 15.5753L46.2636 16.2531C46.2531 16.2804 46.2342 16.3035 46.209 16.3161C46.1839 16.3287 46.1524 16.3308 46.1251 16.3224L45.5249 16.1209L44.5659 18.9519L45.166 19.1513C45.1933 19.1596 45.2164 19.1785 45.229 19.2058C45.2416 19.231 45.2437 19.2604 45.2332 19.2877L45.0045 19.9655C44.9856 20.0222 44.9226 20.0536 44.8659 20.0348L42.9856 19.4052C42.9583 19.3968 42.9353 19.3779 42.9227 19.3506C42.9101 19.3254 42.908 19.2961 42.9185 19.2688L43.1472 18.5909C43.1682 18.5343 43.2291 18.5028 43.2857 18.5217L43.7726 18.6854L42.2784 15.932H42.2763L41.5901 17.9551L42.2091 18.1628C42.2364 18.1712 42.2595 18.1901 42.2721 18.2174C42.2847 18.2426 42.2868 18.2719 42.2763 18.2992L42.0475 18.9771C42.0287 19.0337 41.9657 19.0652 41.909 19.0463L40.0287 18.4167C40.0014 18.4063 39.9783 18.3874 39.9658 18.3622C39.9532 18.337 39.9511 18.3076 39.9616 18.2803L40.1903 17.6004C40.2092 17.5437 40.27 17.5144 40.3267 17.5332L40.9017 17.7242L41.8608 14.8953M36.2638 46.6721C36.2785 46.8148 36.3436 46.8358 36.4884 46.8232C36.6311 46.8085 38.4842 46.6217 38.5786 46.6112C38.6751 46.6007 38.7654 46.5923 38.7486 46.4308C38.7318 46.2692 38.4863 43.8789 38.4758 43.7656C38.4632 43.6501 38.417 43.6187 38.2743 43.6333C38.1295 43.6459 36.2492 43.8369 36.1925 43.8411C36.0771 43.8558 35.9805 43.9104 35.9994 44.0908C36.0183 44.2734 36.1379 45.4402 36.1379 45.4402L36.2638 46.6721ZM35.4307 45.6921C35.4307 45.6921 35.3132 44.5399 35.2439 43.8747C35.1768 43.2094 35.4475 42.9786 35.9449 42.9282C36.4401 42.8779 37.821 42.7393 38.3184 42.6869C38.8472 42.6344 39.12 42.8946 39.1788 43.4759C39.2396 44.0552 39.439 46.0173 39.5041 46.6427C39.567 47.2702 39.3215 47.4759 38.7863 47.5304C38.2512 47.585 36.9291 47.7172 36.3856 47.7718C35.8399 47.8284 35.6217 47.5535 35.5797 47.1464C35.5377 46.7372 35.4307 45.6921 35.4307 45.6921Z" fill="white"/>
</svg>
