<svg width="218" height="126" viewBox="0 0 218 126" fill="none" xmlns="http://www.w3.org/2000/svg">
<path d="M20.5195 55H11.5693C11.3916 55 11.3027 54.8984 11.3027 54.6953L11.3789 32.5293L0.943359 1.03223C0.892578 0.829102 0.96875 0.727539 1.17188 0.727539H9.85547C10.1094 0.727539 10.2617 0.829102 10.3125 1.03223L16.0635 22.0176L21.9287 1.03223C21.9795 0.829102 22.1064 0.727539 22.3096 0.727539H31.0693C31.2725 0.727539 31.3486 0.829102 31.2979 1.03223L20.748 32.2246L20.8242 54.6953C20.8242 54.8984 20.7227 55 20.5195 55ZM50.2219 55.7617C47.4797 55.7617 44.9406 55.0508 42.6047 53.6289C40.2687 52.207 38.4025 50.3027 37.0061 47.916C35.635 45.5039 34.9494 42.876 34.9494 40.0322L35.1018 1.03223C35.1018 0.829102 35.2033 0.727539 35.4064 0.727539H44.1662C44.3693 0.727539 44.4709 0.829102 44.4709 1.03223V40.0322C44.4709 41.7842 45.0295 43.2822 46.1467 44.5264C47.2639 45.7451 48.6223 46.3545 50.2219 46.3545C51.8977 46.3545 53.2941 45.7451 54.4113 44.5264C55.5285 43.2822 56.0871 41.7842 56.0871 40.0322V1.03223C56.0871 0.829102 56.1887 0.727539 56.3918 0.727539H65.1516C65.3547 0.727539 65.4562 0.829102 65.4562 1.03223L65.6086 40.0322C65.6086 42.9014 64.923 45.542 63.552 47.9541C62.1555 50.3408 60.302 52.2451 57.9914 53.667C55.6809 55.0635 53.091 55.7617 50.2219 55.7617ZM81.1811 55H72.3451C72.142 55 72.0404 54.873 72.0404 54.6191L72.1928 1.03223C72.1928 0.829102 72.2943 0.727539 72.4975 0.727539H82.0189C82.2221 0.727539 82.3998 0.829102 82.5521 1.03223L89.6742 11.3154L96.7582 1.03223C96.9105 0.829102 97.101 0.727539 97.3295 0.727539H106.889C107.118 0.727539 107.232 0.829102 107.232 1.03223L107.384 54.6191C107.384 54.873 107.283 55 107.079 55H98.2436C98.0404 55 97.9389 54.873 97.9389 54.6191L97.8627 14.8193L89.6742 26.7021L81.5619 14.8193L81.4857 54.6191C81.4857 54.873 81.3842 55 81.1811 55ZM130.498 55H121.547C121.37 55 121.281 54.8984 121.281 54.6953L121.357 32.5293L110.921 1.03223C110.871 0.829102 110.947 0.727539 111.15 0.727539H119.834C120.087 0.727539 120.24 0.829102 120.291 1.03223L126.042 22.0176L131.907 1.03223C131.958 0.829102 132.085 0.727539 132.288 0.727539H141.047C141.251 0.727539 141.327 0.829102 141.276 1.03223L130.726 32.2246L130.802 54.6953C130.802 54.8984 130.701 55 130.498 55ZM160.2 55.7617C157.458 55.7617 154.919 55.0508 152.583 53.6289C150.247 52.207 148.381 50.3027 146.984 47.916C145.613 45.5039 144.928 42.876 144.928 40.0322L145.08 1.03223C145.08 0.829102 145.181 0.727539 145.385 0.727539H154.144C154.347 0.727539 154.449 0.829102 154.449 1.03223V40.0322C154.449 41.7842 155.008 43.2822 156.125 44.5264C157.242 45.7451 158.6 46.3545 160.2 46.3545C161.876 46.3545 163.272 45.7451 164.389 44.5264C165.507 43.2822 166.065 41.7842 166.065 40.0322V1.03223C166.065 0.829102 166.167 0.727539 166.37 0.727539H175.13C175.333 0.727539 175.434 0.829102 175.434 1.03223L175.587 40.0322C175.587 42.9014 174.901 45.542 173.53 47.9541C172.134 50.3408 170.28 52.2451 167.97 53.667C165.659 55.0635 163.069 55.7617 160.2 55.7617ZM191.159 55H182.323C182.12 55 182.019 54.873 182.019 54.6191L182.171 1.03223C182.171 0.829102 182.272 0.727539 182.476 0.727539H191.997C192.2 0.727539 192.378 0.829102 192.53 1.03223L199.652 11.3154L206.736 1.03223C206.889 0.829102 207.079 0.727539 207.308 0.727539H216.867C217.096 0.727539 217.21 0.829102 217.21 1.03223L217.362 54.6191C217.362 54.873 217.261 55 217.058 55H208.222C208.019 55 207.917 54.873 207.917 54.6191L207.841 14.8193L199.652 26.7021L191.54 14.8193L191.464 54.6191C191.464 54.873 191.362 55 191.159 55ZM49.3102 125.762C46.4918 125.762 43.9527 125.063 41.693 123.667C39.4078 122.271 37.567 120.392 36.1705 118.03C34.7994 115.669 34.1139 113.028 34.1139 110.108V85.3906C34.1139 82.5469 34.8121 79.957 36.2086 77.6211C37.5797 75.2598 39.4205 73.3809 41.7311 71.9844C44.0416 70.5625 46.568 69.8516 49.3102 69.8516C52.1793 69.8516 54.7691 70.5371 57.0797 71.9082C59.3902 73.3047 61.2184 75.1709 62.5641 77.5068C63.9352 79.8428 64.6207 82.4707 64.6207 85.3906V88.9707C64.6207 89.1738 64.4938 89.2754 64.2398 89.2754H55.4801C55.277 89.2754 55.1754 89.1738 55.1754 88.9707V86C55.1754 84.0195 54.6168 82.3818 53.4996 81.0869C52.3824 79.792 50.9859 79.1445 49.3102 79.1445C47.8121 79.1445 46.4791 79.7666 45.3111 81.0107C44.1432 82.2549 43.5592 83.7148 43.5592 85.3906V110.108C43.5592 111.81 44.1305 113.282 45.273 114.526C46.4156 115.745 47.7613 116.354 49.3102 116.354C50.9859 116.354 52.3824 115.758 53.4996 114.564C54.6168 113.346 55.1754 111.86 55.1754 110.108V106.262H49.7291C49.4498 106.262 49.3102 106.135 49.3102 105.881V97.1592C49.3102 96.9053 49.4498 96.7783 49.7291 96.7783H64.316C64.5191 96.7783 64.6207 96.9053 64.6207 97.1592V110.108C64.6207 113.028 63.9352 115.669 62.5641 118.03C61.1676 120.392 59.3268 122.271 57.0416 123.667C54.7564 125.063 52.1793 125.762 49.3102 125.762ZM84.8016 125.762C82.0594 125.762 79.5203 125.051 77.1844 123.629C74.8484 122.207 72.9822 120.303 71.5857 117.916C70.2146 115.504 69.5291 112.876 69.5291 110.032L69.6814 71.0322C69.6814 70.8291 69.783 70.7275 69.9861 70.7275H78.7459C78.949 70.7275 79.0506 70.8291 79.0506 71.0322V110.032C79.0506 111.784 79.6092 113.282 80.7264 114.526C81.8436 115.745 83.202 116.354 84.8016 116.354C86.4773 116.354 87.8738 115.745 88.991 114.526C90.1082 113.282 90.6668 111.784 90.6668 110.032V71.0322C90.6668 70.8291 90.7684 70.7275 90.9715 70.7275H99.7312C99.9344 70.7275 100.036 70.8291 100.036 71.0322L100.188 110.032C100.188 112.901 99.5027 115.542 98.1316 117.954C96.7352 120.341 94.8816 122.245 92.5711 123.667C90.2605 125.063 87.6707 125.762 84.8016 125.762ZM115.837 125H107.001C106.747 125 106.62 124.873 106.62 124.619L106.696 71.0322C106.696 70.8291 106.798 70.7275 107.001 70.7275H115.761C115.964 70.7275 116.065 70.8291 116.065 71.0322L116.142 124.619C116.142 124.873 116.04 125 115.837 125ZM137.655 124.924L123.678 125C123.424 125 123.297 124.873 123.297 124.619L123.449 71.0322C123.449 70.8291 123.551 70.7275 123.754 70.7275L138.341 70.6514C141.236 70.5752 143.851 71.2354 146.187 72.6318C148.548 74.0283 150.427 75.9199 151.823 78.3066C153.245 80.668 153.956 83.2832 153.956 86.1523V108.547C153.956 111.543 153.233 114.285 151.785 116.773C150.313 119.236 148.358 121.204 145.92 122.677C143.483 124.124 140.728 124.873 137.655 124.924ZM138.341 79.9824L132.895 80.0586L132.819 115.402H137.655C139.585 115.402 141.21 114.729 142.53 113.384C143.851 112.038 144.511 110.426 144.511 108.547V86.0762C144.511 84.4258 143.902 82.9912 142.683 81.7725C141.464 80.5283 140.017 79.9316 138.341 79.9824ZM185.906 125H160.693C160.49 125 160.388 124.873 160.388 124.619L160.464 71.0322C160.464 70.8291 160.566 70.7275 160.769 70.7275H185.829C186.033 70.7275 186.134 70.8545 186.134 71.1084V79.8301C186.134 80.0332 186.033 80.1348 185.829 80.1348H169.833V92.3223H185.829C186.033 92.3223 186.134 92.4238 186.134 92.627L186.21 101.463C186.21 101.666 186.109 101.768 185.906 101.768H169.833V115.402H185.906C186.109 115.402 186.21 115.529 186.21 115.783V124.695C186.21 124.898 186.109 125 185.906 125Z" fill="white"/>
</svg>
