<svg width="96" height="96" viewBox="0 0 96 96" fill="none" xmlns="http://www.w3.org/2000/svg">
<path d="M48 48C43.6 48 39.8333 46.4333 36.7 43.3C33.5667 40.1667 32 36.4 32 32C32 27.6 33.5667 23.8333 36.7 20.7C39.8333 17.5667 43.6 16 48 16C52.4 16 56.1667 17.5667 59.3 20.7C62.4333 23.8333 64 27.6 64 32C64 36.4 62.4333 40.1667 59.3 43.3C56.1667 46.4333 52.4 48 48 48ZM16 72V68.8C16 66.5333 16.584 64.4507 17.752 62.552C18.92 60.6533 20.4693 59.2027 22.4 58.2C26.5333 56.1333 30.7333 54.584 35 53.552C39.2667 52.52 43.6 52.0027 48 52C52.4 51.9973 56.7333 52.5147 61 53.552C65.2667 54.5893 69.4667 56.1387 73.6 58.2C75.5333 59.2 77.084 60.6507 78.252 62.552C79.42 64.4533 80.0027 66.536 80 68.8V72C80 74.2 79.2173 76.084 77.652 77.652C76.0867 79.22 74.2027 80.0027 72 80H24C21.8 80 19.9173 79.2173 18.352 77.652C16.7867 76.0867 16.0027 74.2027 16 72Z" fill="#757575"/>
</svg>
