<svg width="60" height="60" viewBox="0 0 60 60" fill="none" xmlns="http://www.w3.org/2000/svg">
<path d="M38.3208 41C38.9604 41 39.5292 41.5687 39.5292 42.2083C39.5292 42.8479 39.0313 43.4187 38.3208 43.4187C37.6792 43.4187 37.1813 42.8479 37.1813 42.2083C37.1813 41.5687 37.6792 41 38.3208 41ZM38.3208 43.1333C38.8188 43.1333 39.2438 42.7062 39.2438 42.2083C39.2438 41.6396 38.8188 41.2854 38.3208 41.2854C37.8229 41.2854 37.3958 41.7104 37.3958 42.2083C37.3958 42.7771 37.8229 43.1333 38.3208 43.1333ZM38.1771 42.8479H37.9646V41.5687H38.3917C38.675 41.5687 38.8188 41.7104 38.8188 41.9958C38.8188 42.2083 38.675 42.3521 38.5333 42.3521L38.8188 42.8479H38.5333L38.2479 42.3521H38.1771V42.8479ZM38.3208 42.1375C38.4625 42.1375 38.5333 42.0667 38.5333 41.925C38.5333 41.7812 38.4625 41.7104 38.3208 41.7104H38.1771V42.0667H38.3208V42.1375ZM44.0083 31.9688C43.3688 31.9688 42.9417 32.2542 42.5146 32.6083L42.2313 33.0354L42.1604 32.9646L42.5146 32.3958V32.0396H40.2396V39.5771H42.3021V34.8125C42.3021 34.0312 42.8 33.8187 43.1563 33.7458C43.5104 33.675 43.9375 33.8896 43.9375 34.3146V39.5771H46V34.3875C46 32.7521 45.2896 31.9688 44.0083 31.9688ZM21.0396 37.8708H23.1729V39.5062H18.9771V31.9688H21.0396V37.8708ZM14 39.5062H18.1958V38.0125H16.0625V36.3771H18.1958V34.9562H16.0625V33.5333H18.1958V31.9688H14V39.5062ZM23.8854 39.5062H28.1521V38.0125H25.9458V36.3771H28.1521V34.9562H25.9458V33.5333H28.1521V31.9688H23.8854V39.5062ZM35.2625 39.5062H39.5292V38.0125H37.325V36.3771H39.5292V34.9562H37.325V33.5333H39.5292V31.9688H35.2625V39.5062ZM32.5604 31.9688L31.7771 36.7333L31.7063 37.5875V37.6583H31.6354V37.5875L31.5646 36.7333L30.7813 31.9688H28.7208L30.4271 39.5062H32.9875L34.6938 31.9688H32.5604Z" fill="#147350"/>
<path d="M40.8083 9H14V19.6667H28.1521C31.3521 15.0438 35.6896 11.3458 40.8083 9Z" fill="#FF6C00"/>
<mask id="mask0_560_76" style="mask-type:luminance" maskUnits="userSpaceOnUse" x="24" y="9" width="22" height="43">
<path d="M24.666 9H45.9994V51.5958H24.666V9Z" fill="white"/>
</mask>
<g mask="url(#mask0_560_76)">
<path d="M24.666 51.5958H35.3327V40.9292H24.666V51.5958ZM45.9994 19.6667V9C35.8306 11.7729 27.866 19.9521 25.4473 30.3333H36.3285C37.9639 25.5688 41.5202 21.7292 45.9994 19.6667Z" fill="#EB0F2A"/>
</g>
</svg>
