<svg width="20" height="21" viewBox="0 0 20 21" fill="none" xmlns="http://www.w3.org/2000/svg">
<g clip-path="url(#clip0_520_78)">
<path d="M9.80698 0.947083L0.90332 5.23404V7.46434H19.3438V5.22221L9.80698 0.947083ZM18.1145 6.23498H2.13269V6.00654L9.82549 2.30261L18.1145 6.01838V6.23498ZM0.90332 19.4507H19.3438V15.4552H0.90332V19.4507ZM2.13269 16.6846H18.1145V18.2213H2.13269V16.6846ZM3.05471 8.38637H4.28408V14.5332H3.05471V8.38637ZM15.9631 8.38637H17.1924V14.5332H15.9631V8.38637ZM7.3575 8.38637H8.58687V14.5332H7.3575V8.38637ZM11.6603 8.38637H12.8897V14.5332H11.6603V8.38637Z" fill="#0D0D0D"/>
</g>
<defs>
<clipPath id="clip0_520_78">
<rect width="19.6699" height="19.6699" fill="white" transform="translate(0.289062 0.395508)"/>
</clipPath>
</defs>
</svg>
